<?xml version="1.0" encoding="UTF-8"?>
<svg version="1.1" viewBox="0 0 2048 2048" width="640" height="640" xmlns="http://www.w3.org/2000/svg">
<path transform="translate(0)" d="m0 0h2048v2048h-2048z" fill="#FCFCFC"/>
<path transform="translate(1008,285)" d="m0 0h29l49 4 26 4 23 5 6 2 11 2 36 12 25 10 8 4 23 11 22 12 22 14 18 13 13 10 11 9 15 13 7 7 8 7 9 9 7 8 10 11 9 11 10 13 10 14 9 13 6 9 6 11 14 26 8 18 6 13 6 15 3 10 5 12 3 11 2 9 3 9 7 34 4 30 2 31v47l-3 36v5l9 4 14 4 13 5 12 5 15 6 13 5 11 5v3l-21-8-9-4-17-6-13-4-24-8-21-4-24-3-2-1v2l7 1 10 8h5l3-3 7 1 6 4 2 6 6-2 2-1h7l6 3 1 6h7l2-2h6l4 2 2 5 2 2h5l2-3 6 2 5 5 9 2v-2l7 2v2h2v3l16 3 2 1 1 4h8l9 3 15 7 16 7 13 6 23 10 14 6 16 8 19 10 9 6 7 4 10 7-3 1-16-8-20-9-15-6-9-4-7-2v-2l-16-4-8-4-10-3-9-3-11-4-3-1 3 3 13 4 9 3 18 7 9 3v2h5v2l7 1 16 8 13 5 19 10 8 4 12 7 10 5 24 16 9 8 4 6 1 3v8l-7 11-11-7-16-12-25-15-23-12-10-5-21-9-16-7-21-7-12-5-14-4-10-3-8-3-10-2-7-2-16-4-15-4-16-3-7-2-12-2-8-2-14-2-7-2-13-2-15-2-2-1-13-2-12-1-17-3-42-5-23-2-56-5-45-2-36-2-26-1-12-1-52-1-24-1h-199l-18 1-40 1-10 1-29 1-46 3-23 1-5 1-39 3-16 2-24 2-10 2-34 4-44 6-21 4-39 7-43 10-35 9-9 2-4 2-12 3-7 3-22 7-6 3-7 2-12 6-23 11-24 12-34 21-15 10-7 4-3-1-4-8v-9l2-7 13-11 7-5h3v-2l14-8 11-7 16-8 7-4 17-9 15-6 11-5 20-8h-4l-10 4h-5v2h-5v2l-16 6-10 5-12 5-17 8-5 2v-2l18-11 15-9 14-8 14-7 11-4 15-7 18-8 24-11 13-5 8-3 10-1 2-5 3-1 12-1 2-4 7-4 4 2 3 3h7l15-3 6-2 17-3 19-5 23-5 19-3 8-2 16-2 20-4 20-3 26-3 14-2 35-4 13-2 25-2 6-1 30-2 17-2 33-2 56-2 12-1 92-1-1-3h-67l-32 2-66 2-8 1-26 1-5 1-68 5-4 1-16 1-59 8-10 1-2 1-16 2-13 3-12 2-27 5-16 4-36 8-9 3-18 4-5 2-11 1 2-5 9-6 5 1v3l5-2 2-5 4-3h6l2 2h9v-6l8-3h5l2 2 5 1-2-7-1-5-11 4-15 4-9 4-16 5-12 5-15 6-16 6-9 3v-2l8-4 10-4 11-5 16-6 12-5 16-6 27-9 1-2-4-51v-33l3-32 3-28 3-17 3-12 3-14 5-16 2-9 4-10 6-17 8-20 7-15 8-16 9-16 12-20 13-19 10-13 11-14 9-10 7-8 14-15 8-8 8-7 12-11 11-9 20-15 16-11 19-12 15-9 7-3 16-8 19-9 13-5 17-6 10-4 16-4 9-3 17-4 12-2 13-3 29-3 16-2z" fill="#080808"/>
<path transform="translate(1007,902)" d="m0 0h30l19 3h21l7-2h36l9 1 7 3 11 1h16l4-3h31l11 3 7 2h25l1-1h25l9 2 4 2 18 2 9-1 5-1h14l17 2 1 5h50l7 4 9 1 2 1 15 1 3-2h12l8 4 18 4h10l3-2h7l8 5 3 3 34 1 4 2 2 3 19 1 14 2 5 4 23 2 13 6 19 3 7 4 6 2 15 3 16 4 2 1v2h-2l-1 7-1 78-1 4h-9l-2-1-1-91-15-3v90l-1 1h-9l-5-1-1-36v-60l-18-1v93l-14-1-1-1-1-27-1-62-1-1-1-8-12-2v6l-1 2-1 90-9-1-10-1-1-101-17-1-1 98h-20l-1-1-1-90-1-12-17-4v103h-9l-16-2-1-1-1-104h-18l-1 101h-25l-3-2-2-7v-100h-20v105l-17-1-14-1-4-1v-107h-20l-1 106-8-1-37-3-1-89-1-15-1-2-3-1h-11l-1 17-1 89-24-2-23-1v-107h-22v105l-27-1-8-1-21-1-1-1v-106l-16 1-4 1-1 72-1 32-59-1v-107l-22 1-1 105-1 1h-59v-107h-22v27l-2 79-1 1h-58l-1-44v-60h-20l-1 99-2 6-24 2h-30v-103h-21v104l-3 1-16 1-6 1h-23v-104l-14 1-4 1-1 104-16 1-6 1h-23l-1-102-20 1v103l-4 2-26 2h-6v-103h-19v105l-13 2-18 1v-101h-19v85l-1 14-2 4-3 2h-20v-100l-15 3-2 1-1 5-1 68-1 26-1 1-19 1-1-88-1-7h-17v99l-3 1h-16v-95l-13 1-3 9-1 31-1 56-4 2-11 1v-92l-8 1-1 1-9 2-1 77-1 13-4 3h-9l-1-20-1-68-9 1-6 1-1 86-3 5-7 1-1-3-1-62v-23l-4-1v-2l13-4 26-5 3-4 17-3 11-2 7-5 17-1 9-2 5-3 2-1 30-2 2-4 3-1 20-1h17v-4l8-4h8l3 2h15l10-3 9-5h12l3 1h13l13-3 11-3 47-1 3-5 11-1h15l15 2 16-1 9-3 12-2h23l3 1h23l9-3 2-1 14-1h21l5 3h28l4-3 7-2h41l6 2h28z" fill="#040404"/>
<path transform="translate(995,1018)" d="m0 0h59v48l23-1 1-44h59v47h22v-46l33 1 24 2v45h22v-43l27 1 14 1 6 2v39l19 1v-39l35 1 10 2v39h21v-33l1-4h14l18 2 2 1 1 37 19 1-1-36 16 1 15 1v36h20v-32l26 1 1 32 4 2h13l1-30h11l11 1v29l-1 4h19v-30l15 1 5 2v30l16 1v-28h15l2 1v30l16 2 1-4 1-23h9l4 1 1 2 1 15v11l15 2 1-26 5-1 5 2 1 1v27l17 1 1-25 3-1 5 2 1 24 1 2 12 2 2 1v-19l1-7 6 1 1 1v27l14 2 5 1v-26l2 1v27l2 1-8-1-29-6-27-4-12-1-1 4-4-1v-4l-15-2h-10l-1 3-3 1-2-5-6-2-8-1h-9l-4 4h-5l-3-4v-2l-15-2h-8l-2 4h-7l-3-5v-2l-27-2-1 4-4 2h-5l-6-6-7-2-16-2-2 6-1 1-10-1-5-2-3-4-7-1h-15l-8 4h-14l-3-2v-2h-2v-2l-23-2-3-1-1 5-1 1h-24l-3-5-2-1-27-2v6h-18l-15-3-6-3-6-2-4-1h-14l-2 2-1 4h-21l-12-2-5-3h-29l-3 3h-31l-9-2-6-3h-23l-13 3h-38l-5-3-2-3h-29l-5 3h-44l-6-3h-28l-5 3-7 1h-40l-5-1h-23l-10 3h-21l-16-1h-33l-2 3h-34v-2l-3-1h-18l-8 2-10 3h-27l-3-1h-15l-10 1-7 3h-22l-4-2-19 1-9 3-5 2h-14l-1-3h-12l-13 2-3 3-3 1h-12l-4-3h-11l-14 3-4 3-8 1-1-4-26 1-4 6h-6l-4-3-17 2-7 3-7 1-2-1h-13l-11 3h-17l-11 2-5 3-5-1h-9l-15 2-26 5-38 8h-5v-28h2v26l16-3 3-2v-25l3-1v26l18-3v-28l6-1 3 25 13-2v-14l1-11 5-6h3l1 4v25l17-1v-25l2-5 4-2h5l2 30 13-3 1-2 2-27 7-4 5 1 1 1 2 29 17-2 1-32 7-1h9l1 31 2-1 14-1v-33l1-1h18v31l6-1h13v-34l11-2h10l1 28 1 6 11-1 3-1 2-5 1-30 2-1 24-1v35l7-1h12v-37l27-3h4v39h19v-40l10-2 20-2h6v41l8-1h13v-41l1-1 28-2h16v41l10-1h9v-42l22-2 25-1v45h22v-45l1-1 14-1h41v45h22v-47l59-2v47h24z" fill="#050505"/>
<path transform="translate(1331,449)" d="m0 0 4 2 7 7-2 4-4 5-3 7-1 5v11l3 11 7 12 5 6 13 9 13 5h15l8-4 3 1 3 5-1 5-16 9-44 24-9 5-19 10-21 12-15 8-16 9-11 6-18 10-16 9-11 6-15 8-18 10-14 8-10 6-9 4-11 7-18 13-17 12-18 13-11 8 9-2v-2l19-8 16-8 10-4 30-15 22-14 23-14 19-12 24-15 23-14 19-12 21-13 19-12 24-15 21-13 28-17 10-6h4l6 9v2l-8 6-5 9-3 7v20l4 12 9 13 8 7 12 6 6 1h12l2 7 1 6-7 2-50 12-38 9-6 2-20 4-36 9-17 4-6 2-20 4-14 4-15 3-10 3-20 4-14 4-16 3-18 5-9 4-20 7-9 4-16 6-14 5-4-1-2-2-15-5-21-5-3-2v-2h11l20 5v-8l15-13 14-11 15-13 11-9 10-9 16-17 9-10 16-17 14-15 9-10 14-15 24-26 15-16 13-14 7-8 7-7 7-8 16-17 11-12 14-15 11-12z" fill="#FBFBFB"/>
<path transform="translate(711,452)" d="m0 0 4 2 25 25 7 8 21 21v2l3 1 7 8 12 12 7 8 22 22 7 8 19 19v2h2l7 8 7 7 7 8 19 19 7 8 18 18 7 8 12 12 14 11 14 12 10 8 13 11 8 6-1 8 10-3 9-2h14l-1 4-11 1-2 1-13 2-10 5-12 3-13-5-12-4-3-2-9-3-18-7-17-6-35-8-9-2-26-6-9-2-14-3-11-3-11-2-15-4-18-4-21-5-7-1-7-2-24-6-35-8-32-7-25-6-3-1 1-10h17l7-3 9-6 8-9 4-7 4-14v-19l-4-12-7-9-3-2 1-5 6-9 14 8 16 9 20 12 12 7 16 10 20 12 9 5 9 6 27 16 28 17 25 15 9 6 11 6 45 27 19 10 19 8 15 7 16 7 14 7v-2l-4-2-23-16-18-13-17-12-13-8-12-6-13-7-22-12-25-13-14-8-14-7-18-10-14-7-22-12-25-13-22-12-23-12-11-6-10-6-16-8-7-4 1-4 6-10 9 3 13 1 9-2 12-6 10-10 6-10 4-12v-18l-3-9-2-4-2-1 1-4z" fill="#FBFBFB"/>
<path transform="translate(719,913)" d="m0 0h15l11 2 7 3-1 2-4 1-1 104-16 1-6 1h-23l-1-102-20 1v103l-4 2-26 2h-6v-103h-19v105l-13 2-18 1v-101h-19v85l-1 14-2 4-3 2h-20v-100l-15 3-2 1-1 5-1 68-1 26-1 1-19 1-1-88-1-7h-17v99l-3 1h-16v-95l-13 1-3 9-1 31-1 56-4 2-11 1v-92l-8 1-1 1-9 2-1 77-1 13-4 3h-9l-1-20-1-68-9 1-6 1-1 86-3 5-7 1-1-3-1-62v-23l-4-1v-2l13-4 26-5 3-4 17-3 11-2 7-5 17-1 9-2 5-3 2-1 30-2 2-4 3-1 20-1h17v-4l8-4h8l3 2h15l10-3 9-5h12l3 1h13l13-3 11-3 47-1 3-5z" fill="#050505"/>
<path transform="translate(941,1081)" d="m0 0h168l65 1 35 1 18 1 51 1 85 4 55 3 27 2 34 2 50 5 41 3 64 7 21 3 34 5 41 7 42 8v1l-11-1-30-5-49-7-33-3-11-2-17-1-13-2-28-2-6-1-22-1-11-2h-8l45 5 26 3 25 1 30 4 27 5 34 5 37 8v1l-12-1-30-5-56-6-45-5-64-5-92-6-85-4-85-3-120-3-91-1-37-2-6-3v-1l40-1 112-1-78-2h-146l-75 1-21 1 110 1 42 1-3 4-10 2-113 1-102 2-137 5-91 5-65 5-47 4-66 7-50 6-51 8h-5l4-2 54-11 13-3 25-3 32-5 67-6 17-1 28-3 16-1 18-2 24-2 21-1-30 1-45 3-79 7-31 3-19 3-31 3-67 10-17 3h-5l4-2 61-12 45-7 46-6 22-3 52-5 38-3 21-2 82-6 105-5 18-1 112-3z" fill="#454647"/>
<path transform="translate(1024,324)" d="m0 0h2l1 30 2 91 3 94v108l-1 18-2 15-2 25 11 1 1 4 5 1 6 3 2-6 5-12 7-14 7-17 4-8 9-19 5-7 5-9 10-16 5-9 6-9 8-14 3-5 7-12 6-10 17-28 16-27 9-15 17-28 14-23 3-1 1 4-8 15-10 19-13 25-6 11-13 24-20 38-11 20-20 38-18 34-10 14-12 17-11 16-10 14-1 3 4 6 4-2 7-9 12-14 9-11 8-10 12-14 2-3h2l1-3h2l1-3h2v-2l8-7 9-9h2v-2l8-7 35-35 8-7 32-32 8-7 13-13 8-7 33-33 8-7 12-12 3 1-2 4-8 8-7 8-15 16-12 13-14 15-7 8-7 7-7 8-7 7-7 8-15 16-24 26-11 12-29 31-9 10-7 7-11 9-13 11-14 11-15 13-4 3v8l-2 1-17-4-2-1h-32l-19 4v-8l-10-8-22-18-13-11-10-8-10-9-12-12-7-8-18-18-7-8-19-19-7-8-7-7v-2h-2v-2l-3-1-7-8-16-16-7-8-22-22-7-8-15-15v-2l-3-1-7-8-18-18-3-7 4 2 12 11 7 7 8 7 12 11 9 9 8 7 12 11 7 7 8 7 18 18 8 7 9 9 8 7 33 31 8 8 8 7 17 16 14 14 7 9 14 17 11 13 9 11 3 3 4-2 2-2-1-5-11-15-13-18-12-17-9-13-9-17-7-12-1-5h-2l-4-8-10-18-8-15-9-16-6-10-4-8-13-23-8-14-6-12-10-17-14-26-8-14-6-11-6-10v-3l4 1 8 13 14 22 10 16 24 39 9 14 12 19 6 9 5 9 6 9 15 25 9 14 5 7 5 9 10 15 8 16 3 4 4 11 4 8 6 13 7 16 6 12 4-1 5-2h6v-2l8-1-2-11-3-34-2-19v-52l1-41 2-59 2-55 1-67z" fill="#0E0E0E"/>
<path transform="translate(909,880)" d="m0 0h243l60 2 22 1 7 1 38 2 7 1 34 2 15 2 28 2 4 1 14 1 18 2 13 2 28 3 3 1 18 2 26 4 20 4 19 3 33 7 33 8 16 5 16 4 24 8 7 3 13 4 20 8 15 7 16 8 13 7 16 9 20 13 12 9 8 7-1 2-9-5-10-7-20-12-20-11-25-11-13-5-18-7-25-8-12-3-17-5-10-2-5-2-25-5-1-1-32-6-12-3-26-4-15-3-12-2-25-3-19-3-36-4-4-1-15-1-14-2-26-2-4-1-18-1-7-1-31-2-19-2-28-1-6-1-35-2-47-1-20-1h-184l-69 2-24 1-8 1-57 3-39 3-61 5-17 2-20 2-23 3-11 1-11 2-63 9-9 2-19 3-13 3-15 3-29 6-5 2-24 6-7 2-18 5-29 10-7 2-1 1h-5v2l-19 7-15 7-16 8-13 8-7 4-18 12-9 3 1-3 14-10h2v-2l10-7 7-4 9-6 12-6 4-3 11-6 31-14 11-4 11-5 36-12 10-3 7-2 8-3 8-2 19-5 9-2 15-3 16-4 20-4 22-3 2-1 16-2 15-3 41-5 11-2 23-2 14-2 26-2 16-2 19-1 7-1 36-2 7-1 51-3 24-1z" fill="#0B0B0B"/>
<path transform="translate(642,543)" d="m0 0 14 8 16 9 20 12 12 7 16 10 20 12 9 5 9 6 27 16 28 17 25 15 9 6 11 6 45 27 19 10 19 8 15 7 16 7 12 6v4l-8 4-7-1-11-5-10-3-3-2-9-3-18-7-17-6-35-8-9-2-26-6-9-2-14-3-11-3-11-2-15-4-18-4-21-5-7-1-7-2-24-6-35-8-32-7-25-6-3-1 1-10h17l7-3 9-6 8-9 4-7 4-14v-19l-4-12-7-9-3-2 1-5z" fill="#FCFCFC"/>
<path transform="translate(1447,648)" d="m0 0 4 1 2 9-10 4-9 8-6 12-1 4v22l3 9 6 12 4 4v2l4 2 5 4 11 4 5 1v13h-37l-119-3-18-1-102-2h-44l-55 5-21 1-5-6-5-2-15-3-15-4v-2l15 1 6 2 10 2 4 2h10l16-4 14-2 2-1 9-1 8-2 22-3 16-4 7-2 20-6 7-2 22-7 22-6 13-4 35-10 24-7 94-28 9-3 30-8z" fill="#FBFBFB"/>
<path transform="translate(596,650)" d="m0 0 9 1 18 5 27 7 18 6 21 5 8 3 22 6 5 2 13 3 9 3 14 4 15 4 8 3 20 5 18 5 7 2 11 4 7 2 19 5 21 6 9 3 37 6 21 4 16 2 5 2 7 1-1 10-15-1-14-1-4-1-32-2-11-1h-38l-54 1-21 1-65 1-33 1-12 1-54 1h-44v-9l10-1 12-7 8-10 4-9 3-12v-12l-3-13-7-13-8-7-8-4z" fill="#FBFBFB"/>
<path transform="translate(1009,324)" d="m0 0h15v25l-1 20-1 67-3 92-1 22-1 41v52l4 38 2 26-10 2-2-6-4-25-1-2-4-27-5-24-5-16-2-6-3-11-2-3-4-16-5-15-7-25-5-16-2-7-4-10-3-12-9-30-2-7-4-13-3-7-4-16-3-7-4-16-3-7-7-25-5-18v-4l10-1 7 14 8 6 8 4 9 2h14l13-3 14-8 8-8 5-9z" fill="#FCFCFC"/>
<path transform="translate(801,383)" d="m0 0h2l6 10 7 13v2h2l3 7 8 13 7 14 3 5 25 45 6 10 7 14 12 21 6 10 6 12 6 10 7 12 8 16 8 14 2 6h2l5 10 9 16 6 11 14 20 26 36 4 6-1 4-4 4-4-2-10-11-7-9-12-14-8-10-9-11-19-19-8-7-17-16-8-8-8-7-8-8-8-7-34-32-15-15-8-7-9-9-8-7-12-11-9-9-8-7-12-11-7-7-8-7-13-13-2-1v-2l-4-2-4-3 1-4 5-4 1-2 4 2 5 4 9 3h17l9-3 11-6 11-11 7-14 2-6v-17l-2-3 1-5z" fill="#FBFBFB"/>
<path transform="translate(904,339)" d="m0 0h5l6 26 4 13 4 18 10 40 4 15 4 18 4 14 6 26 2 6 1 7 3 8 2 12 4 13 3 14 7 28 5 21 4 15 4 13 7 18 4 11 4 10 7 20 2 5-2 2-5 2-4-1-10-21-5-11-5-10-4-10-4-9-8-15-6-10-10-15-4-7-12-19-9-14-3-5-7-12-5-7-4-7-10-16-8-13-14-22-9-15-5-7-5-9-5-7-4-7-12-19-11-18-12-19-3-5v-3l6-4 4 1 6 8 9 6 10 3h13l16-5 11-7 7-6 5-7 5-14v-14z" fill="#FBFBFB"/>
<path transform="translate(1241,380)" d="m0 0 9 5-2 7-1 1v17l2 7 6 11 8 8 8 5 8 4 8 2h17l8-2 8-5 5 1 5 5-2 4-43 43-8 7-33 33-8 7-13 13-8 7-32 32-8 7-35 35h-2v2l-8 7-9 9h-2v2l-5 4-1 2h-2l-2 4-9 10-11 14-12 14-8 10-10 12-3-1-4-7 6-9 12-17 11-16 10-14 7-11 10-19 12-22 5-10 10-19 24-44 8-16 11-20 6-11 19-37 9-16 5-10 6-11 13-24z" fill="#FBFBFB"/>
<path transform="translate(1026,324)" d="m0 0h8l2 12 4 8 7 8 16 8 3 1h23l10-2 12-7 9-10 2-7 13 2 1 5-12 42-3 12-2 4-2 9-3 7-2 7-5 17-2 7-4 16-3 8-2 7-2 9-3 7-2 7-4 16-6 18-5 17-12 40-4 13-2 7-5 19-2 7-3 20-3 14-1 11-5 24-7-1-3-1v-14l2-22 1-4 1-18v-108l-4-130-1-55z" fill="#FCFCFC"/>
<path transform="translate(1139,339)" d="m0 0 8 1v3h-2l1 16 4 10 9 10 8 6 10 5 4 1h26l7-3 11-7 3-6 5 1 6 3-1 5-8 14-11 18-16 27-15 24-12 20-13 22-17 28-12 20-7 12-4 7-12 20-5 7-6 11-9 14-5 9-9 17-4 10-7 15-7 16-4 8-5 11-6-2-4-2 1-6 3-6 4-13 9-23 6-17 3-7 5-21 8-33 3-13 7-30 5-19 3-13 6-25 8-33 6-27 4-15 4-18 4-16 8-33z" fill="#FBFBFB"/>
<path transform="translate(912,1021)" d="m0 0h1l1 37 1-1 7-1 1-1h9l10 2 16 5 1 3 8 1v2l-2 1 1 4-9 2h-40l-5-1h-23l-10 3h-21l-16-1h-33l-2 3h-34v-2l-3-1h-18l-8 2-10 3h-27l-3-1h-15l-10 1-7 3h-22l-4-2-19 1-9 3-5 2h-14l-1-3h-12l-13 2-3 3-3 1h-12l-4-3h-11l-14 3-4 3-8 1-1-4-26 1-4 6h-6l-4-3-17 2-7 3-7 1-2-1h-13l-11 3h-17l-11 2-5 3-5-1h-9l-15 2-26 5-38 8h-5v-28h2v26l16-3 3-2v-25l3-1v26l18-3v-28l6-1 3 25 13-2v-14l1-11 5-6h3l1 4v25l17-1v-25l2-5 4-2h5l2 30 13-3 1-2 2-27 7-4 5 1 1 1 2 29 17-2 1-32 7-1h9l1 31 2-1 14-1v-33l1-1h18v31l6-1h13v-34l11-2h10l1 28 1 6 11-1 3-1 2-5 1-30 2-1 24-1v35l7-1h12v-37l27-3h4v39h19v-40l10-2 20-2h6v41l8-1h13v-41l1-1 28-2h16v41l10-1h9v-42l22-2 25-1v45h22v-45l1-1 14-1h41v45h22z" fill="#1E1C1D"/>
<path transform="translate(845,1083)" d="m0 0h34l13 2-1 3h-5l-1 2h-15l-7-1-8 1-2-1h-10l-3-1-1 1-23 2-2 1h10l15-1 27 1v1l110 1 42 1-3 4-10 2-113 1-102 2-137 5-91 5-65 5-47 4-66 7-50 6-51 8h-5l4-2 54-11 13-3 25-3 32-5 67-6 17-1 28-3 16-1 18-2 24-2 21-1-30 1-45 3-79 7-31 3-19 3-31 3-67 10-17 3h-5l4-2 61-12 45-7 46-6 22-3 52-5 38-3 21-2 82-6 105-5 18-1z" fill="#474849"/>
<path transform="translate(1018,1112)" d="m0 0h13l10 5 6 7 6 12v2l13 1 4-2 2-8h70l21 2 10 5h13l3-1 3-5h21l49 1 49 2 7 3 4 2 14 1 1-3 4-1h37l36 1 18 1 6 1 2 4 8 1 6-1h4l-1-3h18l48 3 13 2 45 2 7 1 2 4 3 1 15 2v1h-13l-75-3-42-2-170-4-228-3-26-1-2 15-3 2h-24l-15-2-10-3-1-1-1-11h-127v-2l6-2 2-2 1-6 46-1h51l2 6v4h19l1-8 5-9 8-7z" fill="#A1A2A3"/>
<path transform="translate(1500,940)" d="m0 0h33l4 2 2 3 19 1 14 2 5 4 23 2 13 6 19 3 7 4 6 2 15 3 16 4 2 1v2h-2l-1 7-1 78-1 4h-9l-2-1-1-91-15-3v90l-1 1h-9l-5-1-1-36v-60l-18-1v93l-14-1-1-1-1-27-1-62-1-1-1-8-12-2v6l-1 2-1 90-9-1-10-1-1-101-17-1-1 98h-20l-1-1-1-90-1-12-17-4v103h-1z" fill="#060606"/>
<path transform="translate(674,1034)" d="m0 0h6v41h8v1h-9l1 2 9 1v1l-10 1-7 3h-22l-4-2-19 1-9 3-5 2h-14l-1-3h-12l-13 2-3 3-3 1h-12l-4-3h-11l-14 3-4 3-8 1-1-4-26 1-4 6h-6l-4-3-17 2-7 3-7 1-2-1h-13l-11 3h-17l-11 2-5 3-5-1h-9l-15 2-26 5-38 8h-5v-28h2v26l16-3 3-2v-25l3-1v26l18-3v-28l6-1 3 25 13-2v-14l1-11 5-6h3l1 4v25l17-1v-25l2-5 4-2h5l2 30 13-3 1-2 2-27 7-4 5 1 1 1 2 29 17-2 1-32 7-1h9l1 31 2-1 14-1v-33l1-1h18v31l6-1h13v-34l11-2h10l1 28 1 6 11-1 3-1 2-5 1-30 2-1 24-1v35l7-1h12v-37l27-3h4v39h19v-40l10-2z" fill="#211F20"/>
<path transform="translate(536,939)" d="m0 0h16l-2 1v102h-1v-100l-15 3-2 1-1 5-1 68-1 26-1 1-19 1-1-88-1-7h-17v99l-3 1h-16v-95l-13 1-3 9-1 31-1 56-4 2-11 1v-92l-8 1-1 1-9 2-1 77-1 13-4 3h-9l-1-20-1-68-9 1-6 1-1 86-3 5-7 1-1-3-1-62v-23l-4-1v-2l13-4 26-5 3-4 17-3 11-2 7-5 17-1 9-2 5-3 2-1 30-2 2-4 3-1z" fill="#0B0B0B"/>
<path transform="translate(1371,1037)" d="m0 0h14l18 2 2 1 1 37 19 1-1-36 16 1 15 1v36h20v-32l26 1 1 32 4 2h13l1-30h11l11 1v29l-1 4h19v-30l15 1 5 2v30l16 1v-28h15l2 1v30l16 2 1-4 1-23h9l4 1 1 2 1 15v11l15 2 1-26 5-1 5 2 1 1v27l17 1 1-25 3-1 5 2 1 24 1 2 12 2 2 1v-19l1-7 6 1 1 1v27l14 2 5 1v-26l2 1v27l2 1-8-1-29-6-27-4-12-1-1 4-4-1v-4l-15-2h-10l-1 3-3 1-2-5-6-2-8-1h-9l-4 4h-5l-3-4v-2l-15-2h-8l-2 4h-7l-3-5v-2l-27-2-1 4-4 2h-5l-6-6-7-2-16-2-2 6-1 1-10-1-5-2-3-4-7-1h-15l-8 4h-14l-3-2v-2h-2v-2l-23-2-3-1-1 5-1 1h-24l-3-5-2-1-16-1-1-3-4-2h20v-33z" fill="#252425"/>
<path transform="translate(1018,742)" d="m0 0h3l-1 3-26 6-8 3-1 14-1 1-24 1-52 1-20 1-4 1-38 2-18 2-55 6-19 2-2 1-18 2-15 3-16 2-12 3-9 1-10 2-11 3-12 2-13 3-6 2-10 1-8-16-7-9-9-6-4-2-9-1v-15h29l45 1 11 1 27 1 155 3h59l46-4 19-2h6l1 1 1-12 2-2 26-5z" fill="#FAFAFA"/>
<path transform="translate(1069,760)" d="m0 0 25 3 7 1 21 1 5 1 20 1h50l101-2 131-4h36v10l-11 1-10 6-5 5-6 9-5 12-1 5-9-1-15-3-11-3-17-3-8-2-15-3-12-2-28-4-11-2-12-1-3-1-21-2-4-1-13-1-4-1-16-1-18-2-49-4-17-1-44-1-26-1-3-1-2-4z" fill="#FAFBFB"/>
<path transform="translate(401,1239)" d="m0 0h17l11 4 10 9 6 9 3 8 1 6v32l-4 14h-2l-1 5-9 10-9 5-5 1h-20l-8-3-9-7-6-8-4-11-1-4v-35l3-12 6-10 7-7 9-5z" fill="#0A0A0A"/>
<path transform="translate(1084,903)" d="m0 0h36l9 1 7 3 22 2-1 2-14 1-4 1-1 72-1 32-59-1v-107l-4-1 3-1v-2z" fill="#020202"/>
<path transform="translate(847,1130)" d="m0 0h9l-1 4-7 2-1 2-2 1 6 1v1l-15 1-3 1-32 1h-46l-22 2-162 5-188 9-76 3v-1l21-3 39-5 24-3 55-4 29-2 35-1 11-2 48-3h24v3h14l2-1 1-3 27-2 38-1h35l1 3h17l3-5 94-2z" fill="#A0A1A2"/>
<path transform="translate(1060,1240)" d="m0 0h43l13 5 7 6 5 10v16l-5 9-3 3h-2l8 10 2 5 1 23 3 5v7l-3 2h-8l-4-5-2-6-2-21-1-4-7-5-32-1v40l-2 2h-12v-100z" fill="#080808"/>
<path transform="translate(1422,1240)" d="m0 0h9l8 15 8 20 5 10 4 10 6 13 3 8 3-4 7-16 11-24 5-13 7-16 3-3h10l1 1v100h-11l-1-1v-63h-2v4h-2l-1 6-4 8-7 17-5 11-8 16-3 3h-6l-9-17-10-24-5-10-3-7-2-4-1 59-2 2h-9l-2-1-1-3v-94z" fill="#060606"/>
<path transform="translate(1238,1027)" d="m0 0 27 1 14 1 6 2v39l19 1v-39l35 1 10 2 1 39 11 1 3 3h-20v6h-18l-15-3-6-3-6-2-4-1h-14l-2 2-1 4h-21l-12-2-5-3-1-1-23-2v-1l13-1h10l-1-3z" fill="#030303"/>
<path transform="translate(867,1240)" d="m0 0h42l9 3 8 6 5 5 3 8v19l-6 11-7 6-7 3-11 2h-22v35l-1 3h-13z" fill="#070708"/>
<path transform="translate(845,1083)" d="m0 0h34l13 2-1 3h-5l-1 2h-15l-7-1-8 1-2-1h-10l-3-1-1 1-23 2-2 1h10l15-1 27 1v1l110 1 42 1-3 4-10 2-113 1-102 2-137 5-75 4h-14v-1l34-3h17l6-2 23-2 10-1v-2l19-1 21-1 7-1-8-1-20 1-9 2-37 2h-19v-1l18-2 19-1 14-2 49-3h24v3h5l3-1 9-1v-2l12-3 1-3h-13v-1l18-1z" fill="#6E6E6F"/>
<path transform="translate(807,1025)" d="m0 0h5l1 45 27 1 12 1v1l-6 1h-37l1-3v-5l-5-2-4-1-14 1-10-1-8 2-2-1v9l3 1-18 2-8 2-10 3h-27l-3-1-24-1-1-3h9v-2h13v-41l1-1 28-2h16v41l10-1h9v-42l22-2z" fill="#232122"/>
<path transform="translate(1340,1089)" d="m0 0h23l55 3 27 2 34 2 50 5 41 3 64 7 21 3 34 5 41 7 42 8v1l-11-1-30-5-49-7-33-3-11-2-17-1-13-2-28-2-6-1-22-1-11-2h-8l45 5 26 3 25 1 30 4 27 5 34 5 37 8v1l-12-1-30-5-56-6-45-5-64-5-92-6-85-4v-1l6-1 3-2v-2l5 1 1-1h9l12 2 1 1h22l11 2 5 1h31l1 1 2-2-24-2-1-1h-11l-26-2-20-1-3-1-19-2-7-1v-1l6-1v-2l-20-1v-2h-17z" fill="#4C4C4D"/>
<path transform="translate(448,954)" d="m0 0h13l-1 3-3 3-2 7-1 31-1 56-4 2-11 1v-92l-8 1-1 1-9 2-1 77-1 13-4 3h-9l-1-20-1-68-9 1-6 1-1 86-3 5-7 1-1-3-1-62v-23l-4-1v-2l13-4 26-5 3-4 17-3 11-2z" fill="#050505"/>
<path transform="translate(954,778)" d="m0 0h69v14l-3 3h-6l-2-1-2-7h-40l-2 5-4 4h-7l-5-5-1-4h-37l-3 7-1 1h-8l-5-6h-30l-8 9h-7l-2-2-1-4h-22l-7 2-1 2h-2l-1 3-3 2h-5l-6-4h-23l-4 4-3 4h-7l-4-5h-9l-2 1-12 2-2 6h-9l-2-3h-14l-9 3-1 4-4 2-5-1-2-3h-9l-11 3-3 7h-6l-5-3h-8l-10 5-5 4-6-3-9 1-9 6-4 3-4-2-1-2-8 1-9 7-2 2-6-1-2-3 1-2h2l1-4 4-3 43-11 28-6 18-4 12-2 15-3 27-4 21-3 33-4 3-1 27-3 29-2 52-4z" fill="#F8F8F8"/>
<path transform="translate(1030,778)" d="m0 0h63l50 1 39 2 8 1 30 2 42 4 15 2 3 1 14 1 10 2 24 3 13 2 18 3 8 2 10 2 18 3 15 4 17 3 6 2 6 1 1 6 9 2v4l-3 3-6-2-3-3-1-3-3-1h-11l-2 2-5-1-9-6-5-2h-8l-4 3h-5l-2-2v-5l-15-3h-7l-3 4h-6l-3-4v-3l-13-2h-7l-3 3h-10l-2-1-1-6-9-1-14-2-4 6h-7v-2l-4-2-2-3-8-2h-15l-7 5-7-1-5-6-9-2h-20l-3 5h-9l-3-5-1-2h-33l-4 5h-8l-4-3v-5h-38l-1 7-1 1h-7l-6-2-2-3v-4l-42 1-1 7-2 2h-5l-3-3v-10z" fill="#F5F5F5"/>
<path transform="translate(910,338)" d="m0 0 2 4 7 25 5 18 3 7 4 16 4 10 5 19 3 8 3 12 3 8 9 29 2 7 3 9 2 7 11 36 5 17 4 13 2 8 3 8 2 9 3 7 5 18 3 16 4 27 3 13 3 19 2 2h-5l-4-8-6-17-6-16-3-7-6-16-5-16-4-17-6-25-2-7-7-28-4-15-1-8-3-8-2-12-2-5-6-26-5-18-4-16-2-9-6-25-5-18-4-19-4-13-4-17z" fill="#0F0F10"/>
<path transform="translate(1652,1240)" d="m0 0h8l5 5 10 15 11 16 12 17 12 18v3h2v-71l2-3h10l1 1v98l-4 3h-6l-8-10-15-22-16-23-9-13-2-5h-2v71l-1 1h-11l-1-1v-98z" fill="#070707"/>
<path transform="translate(866,752)" d="m0 0h38l23 2 20 1 4 1 23 2h6l2-1v7l-2-2-17 1-34 3-20 2h-59l-155-3-27-1-11-1-74-2v-2l98-2 12-1 33-1 65-1 21-1z" fill="#0E0E0E"/>
<path transform="translate(1145,752)" d="m0 0h44l102 2 18 1 88 2 68 2v2l-167 5-101 2h-50l-20-1-5-1-21-1-27-3v-2h-2v-2l27-2z" fill="#101010"/>
<path transform="translate(1136,338)" d="m0 0 2 4-9 36-15 65-4 16-8 34-5 18-4 19-4 15-9 39-11 46-4 13-6 15-6 17-7 18-3 10-3 7-3-3 1-8 3-16 2-17 2-8 4-26 3-9 3-11 2-7 14-46 5-17 4-14 2-5 6-22 2-7 3-7 2-9 3-8 4-16 3-8 4-16 3-8 3-12 2-4 2-9 3-8 6-23 5-17z" fill="#0E0E0F"/>
<path transform="translate(737,474)" d="m0 0 4 2 12 11 7 7 8 7 12 11 9 9 8 7 12 11 7 7 8 7 18 18 8 7 9 9 8 7 33 31 8 8 8 7 17 16 14 14 7 9 14 17 11 13 9 11 5 4-2 4-7-6-14-11-8-7-11-9-12-10-11-9-16-16-7-8-18-18-7-8-19-19-7-8-7-7v-2h-2v-2l-3-1-7-8-16-16-7-8-22-22-7-8-15-15v-2l-3-1-7-8-18-18z" fill="#0A0A0A"/>
<path transform="translate(985,1240)" d="m0 0h8l4 4 5 14 6 15 5 15 4 9 10 29 3 8v6l-1 1h-11l-3-5-3-9-2-5-2-7-38-1-1 6-3 8-5 12-1 1h-9l-3-3 1-5 5-16 4-9 6-17 10-26 6-17z" fill="#060606"/>
<path transform="translate(1342,1240)" d="m0 0h11l5 12 6 18 10 25 6 17 4 10 4 12v6l-2 1h-10l-2-2-3-10-4-9-1-5-38-1-3 11-5 13-2 3h-9l-3-1v-7l8-20 4-12 5-12 10-28 3-7 3-9z" fill="#060606"/>
<path transform="translate(1303,474)" d="m0 0 3 1-2 4-8 8-7 8-15 16-12 13-14 15-7 8-7 7-7 8-7 7-7 8-15 16-24 26-11 12-29 31-9 10-7 7-11 9-13 11-14 11-15 13-4 3-2 3-1-5 22-26 9-11 8-10 12-14 2-3h2l1-3h2l1-3h2v-2l8-7 9-9h2v-2l8-7 35-35 8-7 32-32 8-7 13-13 8-7 33-33 8-7z" fill="#0A0A0A"/>
<path transform="translate(820,412)" d="m0 0 4 1 8 13 14 22 10 16 24 39 9 14 12 19 6 9 5 9 6 9 15 25 9 14 5 7 5 9 10 15 8 16 3 4 4 11 4 8 6 13 7 16 6 12 2 2-4 3-7-11-14-19-10-14-12-17-7-11-6-12-7-12-1-5h-2l-4-8-10-18-8-15-9-16-6-10-4-8-13-23-8-14-6-12-10-17-14-26-8-14-6-11-6-10z" fill="#0B0B0B"/>
<path transform="translate(670,557)" d="m0 0 5 1 6 4 16 8 19 10 22 12 29 15 19 11 16 8 20 11 16 8 22 12 25 13 7 4 15 8 17 10 14 10 17 12 18 13 10 7 3 2v2l-5-2-12-5-15-7-23-10-32-16-21-13-27-16-16-10-11-6-21-13-28-17-13-8-5-3-9-6-8-4-16-10-9-5-7-5-11-6-20-12-7-4z" fill="#09090A"/>
<path transform="translate(1363,560)" d="m0 0 2 1-2 4-18 11-19 12-72 45-23 14-19 12-24 15-23 14-22 14-21 10-15 7-31 14h-3v2l-7 3-3-1 13-10 17-12 18-13 17-12 14-9 9-4 23-13 18-10 20-11 17-9 21-12 11-6 18-10 22-12 14-8 19-10 7-4 18-10z" fill="#090909"/>
<path transform="translate(1214,425)" d="m0 0 2 1-1 4-7 14-10 19-13 25-6 11-13 24-20 38-11 20-20 38-18 34-10 14-12 17-11 16-9 12-4-1 6-15 7-14 7-17 4-8 9-19 5-7 5-9 10-16 5-9 6-9 8-14 3-5 7-12 6-10 17-28 16-27 9-15 17-28 14-23z" fill="#0A090A"/>
<path transform="translate(1552,1240)" d="m0 0h63l1 1v11l-2 2h-49v28h44l1 1v12l-2 1h-43v31h50l1 1v13h-64l-1-2v-97z" fill="#090909"/>
<path transform="translate(1560,1057)" d="m0 0 15 1 5 2v30l16 1v-28h15l2 1v30l16 2 1-4 1-23h9l4 1 1 2 1 15v11l15 2 1-26 5-1 5 2 1 1v27l17 1 1-25 3-1 5 2 1 24 1 2 12 2 2 1v-19l1-7 6 1 1 1v27l14 2 5 1v-26l2 1v27l2 1-8-1-29-6-27-4-12-1-1 4-4-1v-4l-15-2h-10l-1 3-3 1-2-5-6-2-8-1h-9l-4 4h-5l-3-4v-2l-15-2h-8l-2 4h-7l-3-5v-2l-27-2-1 4-4 2h-5l-6-6-3-2 2-2 1-2 12-3 7 1 1 5h19z" fill="#4B4C4D"/>
<path transform="translate(402,1252)" d="m0 0h10l7 1 10 7 4 6 2 12v31l-3 8-6 7-7 4-4 1h-9l-10-3-6-5-5-9-1-6v-30l3-10 4-6 6-5 5-1z" fill="#FBFBFB"/>
<path transform="translate(697,1240)" d="m0 0h11l2 2v42l47-1 1-42 1-1h11l1 1v99l-1 1h-12v-42h-48v38l-2 4h-11z" fill="#070707"/>
<path transform="translate(486,1240)" d="m0 0h8l3 2 1 68 2 9 8 7 7 2 14-1 8-6 3-4 1-3 1-71 3-3h8l3 3v69l-3 11-5 8-8 7-6 3-10 2h-9l-10-2-9-5-8-9-4-9-1-4v-71z" fill="#0A0A0A"/>
<path transform="translate(952,838)" d="m0 0h142l99 2 63 3 14 1 5 1 33 2 21 2 5 1 23 2 45 5 42 6 4 1v2h-9l-33-4-22-3-23-2-15-2-18-1-15-2-69-4-7-1-93-4-75-1h-104l-88 2-8 1-39 1-8 1-62 3-48 4-5 1-35 3-11 2-21 2-10 2-25 3h-5l1-3 2-1 13-1 13-2 42-5 5-1 21-2 64-6 26-2 7-1 39-2 77-2z" fill="#ECECED"/>
<path transform="translate(1481,931)" d="m0 0h7l8 5 4 4v105h-8l-16-2-1-1-1-107z" fill="#020202"/>
<path transform="translate(561,931)" d="m0 0h8l3 2 9 1v3h-6v85l-1 14-2 4-3 2h-19v-102l2-1 1-4z" fill="#020202"/>
<path transform="translate(926,1129)" d="m0 0h51l2 6v4h19l1-8 12 2 17 2h21l4 4 1 3-2 15-3 2h-24l-15-2-10-3-1-1-1-11h-127v-2l6-2 2-2 1-6z" fill="#A0A1A2"/>
<path transform="translate(1030,809)" d="m0 0h73l71 3 27 1 2 1 29 1 27 2 7 1 30 2 47 5 13 2 23 3 26 4 2 1 14 2 8 2 14 2 11 3 17 3 11 3 9 2 15 3 6 2 7 1 21 6 6 3-3 1-21-5-16-3-17-4-17-3-8-2-9-1-7-2-26-4-2-1-12-2-17-2-9-2-11-1-11-2-14-2-41-4-3-1-25-2-6-1-19-1-4-1-57-3-7-1-46-2-59-1-37-1-12-1z" fill="#E9E9E9"/>
<path transform="translate(445,1061)" d="m0 0h9l1 31 2-1h13v2l3 1-21 4-5 3-7-1h-13l-11 3h-17l-11 2-5 3-5-1h-9l-15 2-26 5-38 8h-5v-28h2v26l16-3 3-2v-25l3-1v26l18-3v-28l6-1 3 25 13-2v-14l1-11 5-6h3l1 4v25l17-1v-25l2-5 4-2h5l2 30 13-3 1-2 2-27 7-4 5 1 1 1 2 29 17-2 1-32z" fill="#212021"/>
<path transform="translate(967,1019)" d="m0 0h4v47h23v3l-23 1-5 2v-2l-2-1 3-1v-2h-9v-4l-9-2-9-3-12-1h-5l-1 1-7 1-1 11h-1v-48zm-4 51m-1 1m-3 1 3 1z" fill="#020202"/>
<path transform="translate(1190,1107)" d="m0 0h68l45 2 12 1 3 2v15h-37l-65-1-25-1-1-7z" fill="#6C6C6D"/>
<path transform="translate(952,809)" d="m0 0h67l1 4-11 1-81 1-12 1-76 3-25 2-17 2-18 1-18 2-21 2-31 4-19 2-19 3-24 3-24 4-10 2-15 2-12 3-13 2-32 7-15 4-13 2-1 1-15 3h-7l-1-2 14-2 5-2 22-5 5-2 23-5 20-5 31-6 8-2 14-2 13-3 11-1 2-1 38-5 31-4 16-1 4-1 68-5 5-1 26-1 8-1 66-2z" fill="#eee"/>
<path transform="translate(566,1045)" d="m0 0h9v27h-1l-1-8-4-1-3-3-4 1-6 7-5 1v17l-1 1-17 2-8 3-6 3h-5l-1-4-26 1-4 6h-6l-4-3v-2h-3l-1-3h2v-33l1-1h18v31l6-1h13v-34l11-2h10l1 28 1 6 11-1 3-1 2-5 1-30 2-1z" fill="#232223"/>
<path transform="translate(1756,1240)" d="m0 0h75l1 1v9l-1 4h-32v86l-1 1h-11l-1-1v-86h-30l-3-4v-8z" fill="#070707"/>
<path transform="translate(268,1240)" d="m0 0h8l7 10 12 21 5 8 5 9 2 1 1-5h2l1-4 4-6 2-5 4-6 6-11 8-12h9l1 1v7l-5 10-13 22-13 21-1 2-1 36-1 2h-10l-2-4-1-32-3-8-17-28-5-9-8-13v-5z" fill="#090909"/>
<path transform="translate(785,1108)" d="m0 0h72v11l-1 5-2 1-76 2h-48v-16l13-2z" fill="#A0A1A2"/>
<path transform="translate(588,1240)" d="m0 0h77v12l-2 2h-30v86l-1 1h-12v-87h-32z" fill="#060606"/>
<path transform="translate(941,1081)" d="m0 0h168v1l-161 1 4 1h30l39 2h80l20 1 2 2 72 2 26 2 2 2-148 1 25 1-2 2 7 1v1h-28l-37-2-6-3v-1l40-1 112-1-78-2h-146l-75 1h-54l-9 1h-12l4-3 23-2 2-1 3 1h9l3 1 9-1 5 1h12l3 1 1-3 5 1v-2l-2-1-10-1v-2z" fill="#4B4C4D"/>
<path transform="translate(1382,1102)" d="m0 0 5 1 1-1h9l12 2 1 1h22l11 2 5 1h31l1 1 2-2-24-2v-1l26-2 25 1 8 2 21 1v1l-5 1 45 5 26 3 25 1 30 4 27 5 34 5 37 8v1l-12-1-30-5-56-6-45-5-64-5-92-6-85-4v-1l6-1 3-2z" fill="#787879"/>
<path transform="translate(693,1097)" d="m0 0 14 1v1l-9 2h-11l-14 1h-19v2l-18 3-15 1-6 2h-20l-31 3-2 1-65 5-47 4-66 7-50 6-51 8h-5l4-2 54-11 13-3 25-3 32-5 67-6 17-1 28-3 16-1 18-2 24-2 21-1 2-2h28l37-2 9-2z" fill="#49494A"/>
<path transform="translate(926,1106)" d="m0 0h76l-2 4-10 10-5 3-26 1-79 1v-17l1-1z" fill="#7B7A7B"/>
<path transform="translate(1047,1106)" d="m0 0h119v19l-64-1-33-1-7-2-10-9z" fill="#6D6C6D"/>
<path transform="translate(1171,1240)" d="m0 0h9l2 1v87h47v13h-59l-1-1v-98z" fill="#050505"/>
<path transform="translate(807,1025)" d="m0 0h5l1 45 27 1 12 1v1l-6 1h-37l1-3v-5l-5-2-4-1-14 1-10-1-8 2-2-1v9l3 1-13 1h-11l1-3h16l1-2 1-42 22-2z" fill="#1F1D1E"/>
<path transform="translate(1475,1048)" d="m0 0 26 1 1 32 4 2h13l1-30h11l11 1v29l-9-1-8 2-5 2 2 1-2 1-15-1-7-1-2 6-1 1-10-1-5-2-3-4-22-2 2-4h18z" fill="#201F20"/>
<path transform="translate(1337,1110)" d="m0 0 39 1 39 2 18 2 3 1 1 3v13l-41-1-59-2z" fill="#7B7A7B"/>
<path transform="translate(704,1110)" d="m0 0h6l1 4-1 15-78 3h-20l-1-1v-15l1-1 43-3z" fill="#7B7A7B"/>
<path transform="translate(576,1162)" d="m0 0h26v1l-8 1h-12l-6 4-18 3-11 1-17 3-35 5-25 3h-10l-14-1-5-4-3-4-1-5 2-1 10-1z" fill="#A1A2A3"/>
<path transform="translate(1631,1069)" d="m0 0h9l4 1 1 2 1 15v11l15 2 1-26 5-1 5 2 1 1v27l17 1 1-25 3-1 5 2 1 24 1 2 12 2 2 1v-19l1-7 6 1 1 1v27l14 2 5 1v-26l2 1v27l2 1-8-1-29-6-27-4-12-1-1 4-4-1v-4l-15-2h-10l-1 3-3 1-2-5-4-2 4-1-10-2v-1h5l1-4z" fill="#767677"/>
<path transform="translate(1757,964)" d="m0 0 5 2 15 9 14 10 8 7 4 6 1 3v8l-7 11-11-7-16-12-30-18 1-3 8-8h2l1-3 4-2z" fill="#6A6A6B"/>
<path transform="translate(675,1035)" d="m0 0h4v40h-5l-2-2h-3l-1 2-17 5-4 1-3-1v-42l10-2z" fill="#1F1D1E"/>
<path transform="translate(1262,1240)" d="m0 0h10l2 1 1 3v93l-2 4h-12v-100z" fill="#080808"/>
<path transform="translate(1304,1032)" d="m0 0 35 1 10 2 1 39 11 1 3 3h-11l-8-1 1-2h2l-1-10-5-2-22-1-8-1-2 4-3 2-2 5h-12v-1h11z" fill="#050505"/>
<path transform="translate(580,1116)" d="m0 0h14v17l-1 1-54 3-25 2v-17l1-1 36-3z" fill="#6D6D6E"/>
<path transform="translate(1453,1115)" d="m0 0 34 2 35 3 11 2v14h-37l-34-2-9-1z" fill="#7A797A"/>
<path transform="translate(1424,1042)" d="m0 0 16 1 15 1v36l2 1-3 5-7 3h-14l-3-2v-2h-2v-2l-14-1v-1l10-1z" fill="#1F1D1E"/>
<path transform="translate(948,1082)" d="m0 0h193l24 1v1l-8 1 10 2 33 1 6-1h13l2 2v-2h11l3-1 2 2-2 1-2-1v2h5v1l-16 1h-27l-73-2-1-2-21-1h-85l-34-2h-29l-22-1v-1z" fill="#1D1B1C"/>
<path transform="translate(999,1131)" d="m0 0 12 2 17 2h21l4 4 1 3-2 15-3 2h-24l-15-2-10-3-1-1-1-9-1-3z" fill="#A1A2A3"/>
<path transform="translate(881,1254)" d="m0 0h28l9 6 3 6v11l-7 9-4 2h-29z" fill="#FBFBFB"/>
<path transform="translate(834,1025)" d="m0 0h1v45l7-2 4-4 7-1 13 1 9 3 9 1 2 1 1-2 2 7-10 3h-21l-16-1h-33l-2 3h-34v-2l-3-1-13-1v-1l10-1v-9l11-2 9 1 18-1 1 2 5 1v8h35l-6-1-27-1v-1h21z" fill="#3F3F40"/>
<path transform="translate(382,1071)" d="m0 0h5l2 30 10-2 10 2 1 2h-11l-11 2-5 3-5-1h-9l-15 2-26 5-38 8h-5v-28h2v26l16-3 3-2v-25l3-1v26l18-3v-28l6-1 3 25 13-2v-14l1-11 5-6h3l1 4v25l17-1v-25l2-5z" fill="#666667"/>
<path transform="translate(283,973)" d="m0 0 2 1-6 5 9 3 2 1h14l1 4-16 9-29 19-7 4-3-1-4-8v-9l2-7 13-11 7-5h3v-2l5-2-2 4z" fill="#797879"/>
<path transform="translate(1073,1254)" d="m0 0h28l8 3 4 5 1 9-2 6-5 5-6 2h-28z" fill="#FAFAFA"/>
<path transform="translate(398,970)" d="m0 0h7l-2 4-9 1-6 1-1 86-3 5-7 1-1-3-1-62v-23l-4-1v-2l13-4z" fill="#1E1C1D"/>
<path transform="translate(316,950)" d="m0 0 2 1-2 5h2v3l4-1 6 3 6 2 5 5-4 3-26 13-3 2-3-1v-1h-14l-5-3-6-1 5-5-4 1-6 3 2-4 4-4 9-5 11-6 16-9z" fill="#3E3F40"/>
<path transform="translate(482,1123)" d="m0 0h17v14l-3 2-24 3-31 2h-8v-11l1-4 9-2z" fill="#6C6C6D"/>
<path transform="translate(785,1108)" d="m0 0h72l-1 5-3-2h-11l-3 3h-2l-15 1-7 1-8-1v2l-21 2-23 1-8 1-17 1-8-1v-10l13-2z" fill="#7C7B7C"/>
<path transform="translate(849,1023)" d="m0 0h40v41h-1l-2-12-6-10-2-2h-30l-4 1v2l-3 3-4 8-1 8h-1v-38z" fill="#030303"/>
<path transform="translate(1512,1100)" d="m0 0 17 1 41 3 64 7 21 3 34 5 41 7 42 8v1l-11-1-30-5-49-7-33-3-11-2-17-1-13-2-28-2-6-1-22-1-14-3-21-1-4-2z" fill="#4D4E4F"/>
<path transform="translate(1719,944)" d="m0 0 5 2 19 9 9 6 5 3-1 4-4 2-7 8-3 4-6-1-17-9-12-5v-3l4-10 6-3 3-1-2-5z" fill="#3F4041"/>
<path transform="translate(1549,1122)" d="m0 0h11l47 5 5 2v14l-54-4-9-1z" fill="#A1A2A3"/>
<path transform="translate(732,1150)" d="m0 0h69v1l-69 2-91 2-85 3-40 2-164 8h-18v-1l89-6 120-6 94-3z" fill="#999A9B"/>
<path transform="translate(446,1147)" d="m0 0h13l2 6-1 1 4 2-39 2-42 2-76 3v-1l21-3 39-5 24-3z" fill="#A1A2A3"/>
<path transform="translate(1018,1112)" d="m0 0h13l10 5 6 7 6 12v2l13 1h5l1 2h-19l-2-5h-24l-16-2-11-2 1-5 4-6 7-6z" fill="#797879"/>
<path transform="translate(912,1021)" d="m0 0h1l1 37 1-1 7-1 1-1h9l10 2 16 5 1 3 8 1v2l-2 1 1 4-9 2h-40l-4-2-6-1v-1l5-1-21-1v-1h21z" fill="#252324"/>
<path transform="translate(1371,1037)" d="m0 0h14l18 2 2 1v28l-2 1-2-5-6-2h-9l-8 1v2h-3l-1 2-2-1-1 3z" fill="#050505"/>
<path transform="translate(1312,1061)" d="m0 0h15l16 1 5 3v10l-2 1 7 1v1h-9v6h-18l-15-3-6-3-6-2v-1l6-1 1-8 4-2z" fill="#211F20"/>
<path transform="translate(1098,1148)" d="m0 0h56l165 2 122 3 63 2 78 4v1h-23l-72-3-113-3-63-1-41-1-91-1-53-1-28-1z" fill="#9F9FA0"/>
<path transform="translate(343,937)" d="m0 0 2 1-2 4 11 2 4 2 1 9 2 1v3l-10 4-10 5-4-1-4-4-12-4h-3l-3-3 2-5 7-5z" fill="#201E1F"/>
<path transform="translate(418,1129)" d="m0 0 3 1v15l-18 2-23 2h-13v-12l7-2z" fill="#7B7A7B"/>
<path transform="translate(1073,1129)" d="m0 0h69l2 3-4 4-6 4-3 1 3 1h-35l-4-2h-10l-5-1h-5l-2-4z" fill="#7B7A7B"/>
<path transform="translate(1693,932)" d="m0 0 6 2 5 3 13 5 2 1 1 7-6 4h-3l-1 4-2 7-8-1-16-7-3-2 1-6 1-8 4-3 7-1z" fill="#212021"/>
<path transform="translate(1596,1063)" d="m0 0h15l2 1v30l11 2 10 2 2 2-25-1-4 4h-5l-3-4v-2l-15-2-4-3 2-1h14z" fill="#464748"/>
<path transform="translate(472,1056)" d="m0 0h17v32h9l2 2-13 2-4 6h-6l-4-3v-2h-3l-1-3h2v-33z" fill="#1F1E1E"/>
<path transform="translate(714,1031)" d="m0 0h31v28l-2-3-1-5-4-3v-2l-12 1h-9l-6 2-6 3h-2v6h-1v-26z" fill="#030303"/>
<path transform="translate(354,985)" d="m0 0h4v80l-2 5-1 1h-5l-1-28v-53h-3v-2z" fill="#3D3E3F"/>
<path transform="translate(1630,968)" d="m0 0h1l1 45 1 13 1-2h2l1-5h3l3 8 1-13 1-40h1v89l-1 1h-9l-5-1-1-36z" fill="#282728"/>
<path transform="translate(1692,983)" d="m0 0 6 2 5 3-2 10-1 11-1 63h-6l-2-5v-69z" fill="#404142"/>
<path transform="translate(1665,955)" d="m0 0 5 1 18 7 15 7 16 8 13 7 16 9 20 13 12 9 8 7-1 2-9-5-10-7-20-12-20-11-25-11-13-5-4-2-4-5-5-4-6-2v-2l-5-1z" fill="#2E2D2E"/>
<path transform="translate(1337,1110)" d="m0 0 39 1 39 2 10 2-4 2-3 2-13 1-28 1-7 1-18-1h-14l-1-3z" fill="#6C6C6D"/>
<path transform="translate(1717,996)" d="m0 0h5l7 4-4 2-1 59-1 13-1 2h-6l-1-1v-73z" fill="#797879"/>
<path transform="translate(901,1095)" d="m0 0h117l-3 4-3 1h-118l-35-1-8-1 3-2h26z" fill="#3D3E3F"/>
<path transform="translate(1590,1115)" d="m0 0 30 2h9l30 4 27 5 34 5 37 8v1l-12-1-30-5-56-6-45-5-36-3v-1l20-1-8-2z" fill="#807F80"/>
<path transform="translate(1627,1129)" d="m0 0 12 1 32 4 9 2v9l-5 2h-18l-28-3-1-1z" fill="#A1A2A3"/>
<path transform="translate(807,1025)" d="m0 0h5v37h-1l-1-13-10-10h-8l-15 3-6 1-4-2v6h-1l-1-19 22-2z" fill="#040404"/>
<path transform="translate(1673,990)" d="m0 0h1v74l-1 4h-9l-2-1v-53l2-2 1-3 4-1 2 1 1 4z" fill="#4B4C4D"/>
<path transform="translate(1520,1053)" d="m0 0h11l11 1v29l-9-1-8 2-5 2 2 1-2 1-9-1-3-2 9-1 2-1z" fill="#242223"/>
<path transform="translate(533,1141)" d="m0 0h21l-1 6-10 2h-24v2h-6v-2h-7l-12 2-9 2-7 1-19 1 1-3-1-5 1-1 15-1 35-1 11-2z" fill="#7B7A7B"/>
<path transform="translate(451,1107)" d="m0 0h10l-4 2v2l-20 1-7 1-1 3-29 4-38 4-67 10-17 3h-5l4-2 61-12 45-7 46-6z" fill="#535455"/>
<path transform="translate(1424,1042)" d="m0 0 16 1 15 1v25l-2-4-6-1h-12l-5 4-4 1-1-19z" fill="#020202"/>
<path transform="translate(1692,1078)" d="m0 0 7 2 1 24 1 2 12 2 2 1v-19l1-7 6 1 1 1v27l14 2 5 1v-26l2 1v27l2 1-8-1-29-6-27-4 2-3h6l1-25z" fill="#848485"/>
<path transform="translate(468,1119)" d="m0 0h17v1l-56 5-62 7-33 4-51 8h-5l4-2 54-11 13-3 25-3 24-4h7l-3 2-3 1h15l15-2 19-1 1-1z" fill="#737374"/>
<path transform="translate(330,996)" d="m0 0h4v72l-1 7-6 1-1-29v-45h-3l-1-4z" fill="#787879"/>
<path transform="translate(283,973)" d="m0 0 2 1-6 5 9 3 2 1h14l1 4-16 9-4 3h-5v-2l-5-1-13-3v-3l1-2-5 3h-2v2l-2-1 7-9 7-5h3v-2l5-2-2 4z" fill="#69696A"/>
<path transform="translate(412,1065)" d="m0 0 5 1 1 1 2 29 13-1v2l12-1v2h-4l-1 2h-13l-11 3h-6l-1-1-8-1 2-5 2-27z" fill="#454647"/>
<path transform="translate(834,1025)" d="m0 0h1v45l7-2 4-4 7-1 13 1 9 3 9 1 2 1 1-2 2 7-10 3h-21l-42-2v-1l30-1-6-1-27-1v-1h21z" fill="#4B4C4D"/>
<path transform="translate(655,1112)" d="m0 0h28v1l-10 3-2 2-7 2-17 2-24 4-11 3-1-13 1-1z" fill="#6C6C6D"/>
<path transform="translate(615,1040)" d="m0 0h9v35h-1l-1-12h-2l-3-6-4-1-12 4-3 10-3 3v-30l1-1z" fill="#020202"/>
<path transform="translate(1049,1107)" d="m0 0h115l-1 3-11 1h-8l-3 2-10 1h-27l-7-1-6-1-3 1-7-1-11-2-13 2v3l-4-2-4-4z" fill="#3D3E3F"/>
<path transform="translate(942,1107)" d="m0 0h59l-2 4-8 8h-28l-17-5-2-4-2-1z" fill="#686869"/>
<path transform="translate(543,1100)" d="m0 0h27l-3 3h-9l-19 3-4 1-92 8h-17l4-3 7-1h20v-2l6-3 27-1h11l1-1h24l1-1 16-2z" fill="#3F3E3F"/>
<path transform="translate(732,1066)" d="m0 0h6l2 1 1 4 23-1-1 3h-12l-4-1v2l5 1v1l-8 2-10 3h-27l-3-1-14-1v-1l14-1 1-5 6-1v-2l4-2h11z" fill="#3F3F40"/>
<path transform="translate(675,1035)" d="m0 0h4v23l-6-5-1-4-13 1-12 6-1 15h-1v-33l9-2z" fill="#030303"/>
<path transform="translate(566,1045)" d="m0 0h9v27h-1l-1-8-4-1-3-3-4 1-6 7-5 1v17h-6v-2l3-3 1-34 2-1z" fill="#0A0A0A"/>
<path transform="translate(1792,989)" d="m0 0 5 1 6 8 1 3v8l-7 11-11-7-14-10 4-3 5-2 3-3h2l1-3 5-1z" fill="#A1A2A3"/>
<path transform="translate(520,1050)" d="m0 0h9v27l-4-1v-2l-8-1-3 3-1 4h-3l-1 4v-32z" fill="#030303"/>
<path transform="translate(1150,1091)" d="m0 0h45l26 2 2 2-148 1 25 1-2 2 7 1v1h-28l-37-2-6-3v-1l40-1 112-1-36-1z" fill="#4B4C4D"/>
<path transform="translate(1650,971)" d="m0 0 16 2 12 4v2h-2l-2 11-1 24-2-1v-4h-6l-1 15h-1l-1-10-1-38-15-3z" fill="#262526"/>
<path transform="translate(1075,1095)" d="m0 0h123v1l-16 3-31 1h-57l-1-2-31-1v-1z" fill="#1C1A1B"/>
<path transform="translate(587,1103)" d="m0 0h20v1l-31 2-36 3-6 1-37 3-7 1-28 2-44 4h-12l2-2 21-3 82-7 41-3z" fill="#F6F6F6"/>
<path transform="translate(1250,1066)" d="m0 0h24l6 3v7l-2 5h-21l-12-2-5-3 3-2 4-1 2-6z" fill="#222021"/>
<path transform="translate(375,985)" d="m0 0h1l1 12 1 31 5 1 2 1 1-12h1v44l-3 5-7 1-1-3-1-62z" fill="#454647"/>
<path transform="translate(989,1265)" d="m0 0 2 1 3 10 5 11 2 8v4h-25l3-10 3-6 4-13z" fill="#F8F8F8"/>
<path transform="translate(1346,1265)" d="m0 0h2l5 13 6 17v4h-25l4-14 4-8z" fill="#F8F8F8"/>
<path transform="translate(1779,977)" d="m0 0 11 7 5 4-1 2-2-1v2l-5 2-5 5-5 3-6 1-14-9 3-4 12-4 1-3h2v-2h2v-2z" fill="#797879"/>
<path transform="translate(1614,1110)" d="m0 0h9l16 2 30 4 56 9 47 9v1l-11-1-30-5-49-7-33-3-11-2-17-1-4-2 4-1h9l-16-2z" fill="#7B7B7C"/>
<path transform="translate(1475,1048)" d="m0 0 26 1-1 23-2-4v-2l-6-1-2-2-6 1-8 8-1-2z" fill="#010101"/>
<path transform="translate(500,1157)" d="m0 0h36v1l-5 1-59 3-120 6h-18v-1l89-6z" fill="#808081"/>
<path transform="translate(404 1e3)" d="m0 0h1l1 33h5l1-5 5-2 1-17h1v33l-1 13-4 3h-9l-1-20z" fill="#333233"/>
<path transform="translate(329,1083)" d="m0 0h4l3 25h6l2 3-26 5-28 6h-5v-28h2v26l16-3 3-2v-25l3-1v26l18-3v-28z" fill="#959697"/>
<path transform="translate(331,977)" d="m0 0 2 1-3 3-5 1v2l7-2 1 3-29 14-9 6-7 4-18 12-9 3 1-3 14-10h2v-2l10-7 7-4 9-6 12-6 4-3z" fill="#474748"/>
<path transform="translate(1199,1068)" d="m0 0h11l1 2h-2l2 6-3 3h-31l-9-2-4-3 11-3h15v-2z" fill="#222021"/>
<path transform="translate(1385,1099)" d="m0 0h12l3 1 32 2 14 1h25l1 2 19 2v1l-10 1-2 1v-2l-15 1h-16l-6-1-10-2h-22l-5-2-17-2z" fill="#444546"/>
<path transform="translate(1561,1058)" d="m0 0h14l4 1v29h-1l-1-9-10-4v3h-3l-1 2h-2z" fill="#1E1C1D"/>
<path transform="translate(1634,1122)" d="m0 0h15l26 4 11 1 13 1 25 4 33 7v1l-12-1-30-5-85-9z" fill="#A0A1A2"/>
<path transform="translate(1141,1082)" d="m0 0h33l35 1 18 1v3h-6v2h-5v-1h-10l-7 1-32-1-16-2v-1l6-1-16-1z" fill="#494A4B"/>
<path transform="translate(674,1034)" d="m0 0h6v41h8v1h-9l1 2 9 1v1l-10 1-7 3h-22l-4-2h-16v-1l7-1h13l15-5h3l1-3 4 1 6 2v-40l-4 1h-8v-1z" fill="#434445"/>
<path transform="translate(1382,1102)" d="m0 0 5 1 1-1h9l12 2 1 1h22l11 2 14 2v2h-18l-66-3v-1l6-1 3-2z" fill="#717172"/>
<path transform="translate(1632,1069)" d="m0 0h8l4 1 1 2v25l-3-2-10-1z" fill="#3F4041"/>
<path transform="translate(382,1071)" d="m0 0h5l1 12v18l-8 1-3-3v-24l1-2z" fill="#434445"/>
<path transform="translate(1691,998)" d="m0 0h1l1 28 2 11 1 1 1 11 1-23h1v46h-6l-2-5z" fill="#767677"/>
<path transform="translate(1716,1083)" d="m0 0 6 1 1 1v27l14 2 5 1v-26l2 1v27l2 1-8-1-18-4v-2l-5-1v-20z" fill="#9D9E9F"/>
<path transform="translate(345,1139)" d="m0 0h8l1 7-2 4-10 2-15 1-2-3v-7z" fill="#A1A2A3"/>
<path transform="translate(1018,1112)" d="m0 0h13l10 5 6 7-1 3-6-3-7-1h-15l-4-1v-2l-6 1 4-6z" fill="#6B6B6C"/>
<path transform="translate(364,1119)" d="m0 0h5l2 1 18-1h11v1l-38 4-67 10-17 3h-5l4-2 61-12z" fill="#828283"/>
<path transform="translate(976,1082)" d="m0 0h118l2 2-14 1-33 1h-15l-35-2-23-1z" fill="#010101"/>
<path transform="translate(1489,1078)" d="m0 0h5l5 5v1h18v1l-6 1v1l-13-1-2 6-1 1-10-1-5-2-3-4-4-2 2-1 2 1 1-4z" fill="#444546"/>
<path transform="translate(1741,1010)" d="m0 0 11 2v2h-7l-1 66h-3l-1-42v-27z" fill="#848384"/>
<path transform="translate(1533,1081)" d="m0 0 7 1 1 5h9l11 1v2h-24l-1 4-4 2h-5l-6-6-3-2 2-2 1-2z" fill="#3C3D3E"/>
<path transform="translate(543,1100)" d="m0 0h27l-3 3h-9l-19 3-4 1-24 2h-24l3-3 11-1 1-1h24l1-1 16-2z" fill="#2B2A2B"/>
<path transform="translate(838,1093)" d="m0 0 138 1v1l-148 1-39 1-23-1v-1l16-1z" fill="#A1A2A3"/>
<path transform="translate(1526,1107)" d="m0 0h15l11 2 22 1 19 2 24 2 4 1 17 1 14 3v1h-10l-13-2-25-1-53-6-25-3z" fill="#FDFDFD"/>
<path transform="translate(1663,1073)" d="m0 0 8 1 1 1v27l-6-2h-4v-26z" fill="#6A6A6B"/>
<path transform="translate(362,963)" d="m0 0 2 1-1 5-6 2 1 4-19 7-4 2-5-1-5 1v-2l6-3 4-4 16-7z" fill="#2B2A2B"/>
<path transform="translate(1735,987)" d="m0 0 11 6 22 14 12 9 8 7-1 2-9-5-10-7-20-12-9-5v-5l-4-2z" fill="#818182"/>
<path transform="translate(1717,996)" d="m0 0h5l7 4-4 2v8l-2 4-2 1-2 12-2 31h-1v-60z" fill="#656566"/>
<path transform="translate(302,1012)" d="m0 0h7v68h-3l-2-67z" fill="#707172"/>
<path transform="translate(1150,1091)" d="m0 0h45l26 2 2 2h-149v-1l112-1-36-1z" fill="#78797A"/>
<path transform="translate(376,1078)" d="m0 0h1l1 23h10l1-3v3l10-2 10 2 1 2h-11l-11 2-5 3-5-1h-9l-15 2-5 1h-11l4-1v-2l16-2 9-1 2-1h7z" fill="#6D6D6E"/>
<path transform="translate(374,1135)" d="m0 0h6l-3 1v2h2v2l9 3 2 4 2 1-12 1h-13v-12z" fill="#A1A2A3"/>
<path transform="translate(1686,963)" d="m0 0 9 3 24 12 13 7 7 6v3l3 1-7-1-16-8-4-3v-4l-9-3-5-4-12-5z" fill="#4C4D4E"/>
<path transform="translate(472,1056)" d="m0 0h17v22l-2-2-2-7-2-2v-3l-3-1-6 11-2 4z" fill="#070707"/>
<path transform="translate(1543,1111)" d="m0 0h17l26 3 7 2 8 1-3 2h-24l-10-2v-2l-15-1-6-1z" fill="#68696A"/>
<path transform="translate(1520,1053)" d="m0 0h11l10 1v14h-1v-5l-4-1-7-1-5 4-1 2h-2v10h-1z" fill="#030303"/>
<path transform="translate(1018,742)" d="m0 0h3l-1 3-26 6-8 3-1 14-1 1h-5l1-7h1l1-12 2-2 26-5z" fill="#F9F9F9"/>
<path transform="translate(423,1161)" d="m0 0h18l10 1v1l-99 5h-18v-1z" fill="#98999A"/>
<path transform="translate(518,842)" d="m0 0 4 1 2 2-13 4-12 5-47 18-1-2 8-4 10-4 11-5 16-6 12-5z" fill="#181819"/>
<path transform="translate(880,1108)" d="m0 0h1v9l10 1v2h11l10 2 47 1v1l-79 1z" fill="#A1A2A3"/>
<path transform="translate(1532,1122)" d="m0 0h1v14h-37l-19-1v-1l10-1 5-1h15l18-2 7 1z" fill="#A1A2A3"/>
<path transform="translate(329,1083)" d="m0 0h4l3 27-9 2v-28z" fill="#9D9E9F"/>
<path transform="translate(1024,324)" d="m0 0h2l1 30v32h-1l-1-6h-1l-1 12h-1v-23z" fill="#565657"/>
<path transform="translate(910,338)" d="m0 0 2 4 7 25 5 18 3 9-5 2-5-22-4-13-4-17z" fill="#2A2A2A"/>
<path transform="translate(840,1087)" d="m0 0 4 1h9l3 1 9-1 16 2v1l-11 1h-37l-9 1h-12l4-3 23-2z" fill="#3D3E3F"/>
<path transform="translate(246 1e3)" d="m0 0h1l1 6 2-3 9 1v2l7 1 2 2-15 9-3-1-4-8z" fill="#A0A1A2"/>
<path transform="translate(1631,1069)" d="m0 0h1v25l6-1 6 1 1-7h1v11l2 1-2 3-6 1-1 3-3 1-2-5-4-2 4-1-10-2v-1h5l1-4z" fill="#767677"/>
<path transform="translate(1072,1129)" d="m0 0h1l1 8 2 1h7l7 1 15 1v1l27 1v1h-52l-24-1v-1l15-1-2-2 2-3z" fill="#9FA0A1"/>
<path transform="translate(349,1128)" d="m0 0h6v1l-14 4v2l-46 7-12 2h-5l4-2 54-11z" fill="#A0A1A2"/>
<path transform="translate(1267,1092)" d="m0 0 26 1 1 3-2 1h-37l-4-1v-2l3-1z" fill="#6D6C6D"/>
<path transform="translate(330,996)" d="m0 0h3v20l-2 4v-3h-2v5l-2-2-1-5v-13h-3l-1-4z" fill="#434445"/>
<path transform="translate(1379,1079)" d="m0 0h18l5 1-1 5-1 1h-24l-2-5z" fill="#3F4041"/>
<path transform="translate(1441,820)" d="m0 0 7 1 29 8v2l-13-1-10-1-2-1v2h-2l-3-3-7-2z" fill="#191919"/>
<path transform="translate(1690,1127)" d="m0 0 30 4 37 8v1l-12-1-30-5-26-3z" fill="#9A9A9B"/>
<path transform="translate(526,1100)" d="m0 0h17l1 2-17 2-5 1h-20l-1 1h-27v-1l38-4z" fill="#4F5051"/>
<path transform="translate(367,1126)" d="m0 0h7v2l10 1v1l-35 4h-10l4-3 16-4z" fill="#808081"/>
<path transform="translate(659,1097)" d="m0 0h22v1l-17 3-37 2h-19v-1l18-2 19-1z" fill="#A3A3A3"/>
<path transform="translate(1695,1121)" d="m0 0 13 1 54 10 10 2v1l-11-1-30-5-41-6v-1z" fill="#939394"/>
<path transform="translate(1692,1078)" d="m0 0 7 2 1 23-2 3-2-2-1-21-2 21h-2v-25z" fill="#717172"/>
<path transform="translate(349,992)" d="m0 0h1l1 41 2 2 1 24-2 3-1 9h-1l-1-28z" fill="#7A7A7B"/>
<path transform="translate(390,1115)" d="m0 0h18l3 2h-3v2l-29 2h-11l1-3z" fill="#515253"/>
<path transform="translate(1239,379)" d="m0 0 2 2-4 9-13 24-6 11-2 2-3-1 2-5 18-30z" fill="#1F1F1F"/>
<path transform="translate(1430,1082)" d="m0 0h20l4 4-7 3h-14l-3-2v-2h-2l1-2z" fill="#424243"/>
<path transform="translate(543,1155)" d="m0 0h51v1l-10 1-44 2h-9v-1l-9-1v-1z" fill="#89898A"/>
<path transform="translate(288 1e3)" d="m0 0 2 1 1 4-21 14-9 3 1-3 14-10h2v-2z" fill="#767677"/>
<path transform="translate(468,1119)" d="m0 0h17v1l-56 5-27 3h-7v-1l17-2 7-2 29-2 1-1z" fill="#787879"/>
<path transform="translate(1590,1115)" d="m0 0 30 2h9l6 2v1h-25l-1 1h-21l-10-1v-1l20-1-8-2z" fill="#777778"/>
<path transform="translate(1385,1098)" d="m0 0h27l40 4 5 1v1h-11l-26-2-20-1-3-1-12-1z" fill="#A9A9AA"/>
<path transform="translate(1e3 755)" d="m0 0h7l2 2v10l-2 2h-7l-1-1v-12z" fill="#E9E9E9"/>
<path transform="translate(1655,1115)" d="m0 0h9l31 5v2h-13l-33-3v-1l12-1-6-1z" fill="#7D7D7E"/>
<path transform="translate(619,809)" d="m0 0 4 2-15 5-23 6-19 6-10 3-4-1 10-4 31-9 14-4 8-2z" fill="#9B9B9C"/>
<path transform="translate(627,758)" d="m0 0h35v1l-32 1-4 2h-14l-29-1v-2z" fill="#5A595A"/>
<path transform="translate(338,1123)" d="m0 0 3 1-8 2 2 2-40 6-17 3h-5l4-2z" fill="#969798"/>
<path transform="translate(571,1082)" d="m0 0h2l-2 7-4 2h-12l-4-4 5-2z" fill="#3D3D3E"/>
<path transform="translate(1723,1030)" d="m0 0h1v31l-1 13-1 2h-6l3-1-1-2v-12l2-5 1-6h1z" fill="#A1A2A3"/>
<path transform="translate(504,857)" d="m0 0 5 1v3l3 1 3 2-7 2-9 2h-6l2-5z" fill="#101010"/>
<path transform="translate(1136,338)" d="m0 0 2 4-9 36-1 6-2-3-2 1 4-16 5-17z" fill="#474748"/>
<path transform="translate(1402,536)" d="m0 0 2 4-10 6-26 16-5 2 2-5 17-10 12-6 7-4z" fill="#1C1C1C"/>
<path transform="translate(502,1104)" d="m0 0h19l1 2-11 3h-24l3-3 11-1z" fill="#262425"/>
<path transform="translate(1735,987)" d="m0 0 11 6 11 7 3 6-5-1-16-9v-5l-4-2z" fill="#737374"/>
<path transform="translate(693,1097)" d="m0 0 14 1v1l-9 2h-11l-14 1h-19v-1l16-2 3-1z" fill="#3D3E3F"/>
<path transform="translate(1719,934)" d="m0 0 6 2 9 6 7 4 10 7-3 1-16-8-7-3 2-2-6-2v-2l-2-1z" fill="#272627"/>
<path transform="translate(1645,974)" d="m0 0h1v89l-1 1h-9l3-3h5z" fill="#7F7F80"/>
<path transform="translate(782,1094)" d="m0 0h44l2 2-39 1-23-1v-1z" fill="#787778"/>
<path transform="translate(358,1079)" d="m0 0h1v25h8v1l-13 2h-7l2-1v-14h1l1 12 2-15 2-3v18h3z" fill="#838384"/>
<path transform="translate(629,860)" d="m0 0h5l3 3-32 4h-5l1-3 2-1 13-1z" fill="#DCDCDC"/>
<path transform="translate(598,644)" d="m0 0 1 4 10 2 28 6-3 1v2l-8-1-10-3-19-5z" fill="#49494A"/>
<path transform="translate(790,522)" d="m0 0 7 6 12 11 7 7 8 7-2 2-8-7-2-1v-2l-4-2-9-10-8-7z" fill="#3E3E3F"/>
<path transform="translate(1044,755)" d="m0 0h5v13l-1 1h-6l-1-1v-9z" fill="#F1F2F2"/>
<path transform="translate(1018,753)" d="m0 0h5v13l-1 2h-5l-1-2v-11z" fill="#EAEAEA"/>
<path transform="translate(1330,446)" d="m0 0 1 2 2 1-8 7-14 15-5 5-2-3 25-25z" fill="#252525"/>
<path transform="translate(412,1065)" d="m0 0 5 1v10l-1-2-8 1-1-1-2 2v-7z" fill="#282627"/>
<path transform="translate(445,1061)" d="m0 0h8v16h-1v-10h-8l-2 1-2 5h-1v-7l-1-4z" fill="#040404"/>
<path transform="translate(1611,981)" d="m0 0h1v78h-1v-6h-2l-1-4 2-5z" fill="#1D1B1C"/>
<path transform="translate(1543,1111)" d="m0 0h17l25 4v1h-13l-23-2-6-1z" fill="#454647"/>
<path transform="translate(388,1098)" d="m0 0 1 3 10-2 10 2 1 2h-11l-11 2-5 3-5-1v-2l-2-1 3-1 9-1z" fill="#5A5B5C"/>
<path transform="translate(1448,646)" d="m0 0 1 2-16 5-14 4h-3v-2l-7 1 4-2 29-7z" fill="#49494A"/>
<path transform="translate(422,905)" d="m0 0 3 1-8 4-24 8h-5l2-3 9-2 2-2 12-3 3-2z" fill="#EFEFEF"/>
<path transform="translate(308,1048)" d="m0 0h1v32h-3v-30z" fill="#858586"/>
<path transform="translate(1095,1074)" d="m0 0h26v2h5v1h-38v-1h7z" fill="#323132"/>
<path transform="translate(713,450)" d="m0 0 1 2 4 2 4 3v2l4 2 12 12-1 4-25-25z" fill="#323232"/>
<path transform="translate(1564,1104)" d="m0 0 13 1 37 4v1l-11 1-1-1-18-1v-2h-15l-5-2z" fill="#79797A"/>
<path transform="translate(802,382)" d="m0 0h3l10 17 7 11v2l-3 1-1-5h-2l-10-18z" fill="#302F30"/>
<path transform="translate(605,1082)" d="m0 0h3v2l8-1v2l2 1-5 2h-14l-1-3-3-1z" fill="#424344"/>
<path transform="translate(1084,822)" d="m0 0h11l1 1v5l-1 1h-9l-3-2z" fill="#E6E6E6"/>
<path transform="translate(307,1089)" d="m0 0h2v26l3 1-6-1v-25z" fill="#A1A2A3"/>
<path transform="translate(344,1122)" d="m0 0h16l-3 1v2l-13 2h-12l1-2 8-2z" fill="#6F6F70"/>
<path transform="translate(1716,1131)" d="m0 0 8 1 33 7v1l-12-1-30-5z" fill="#A1A2A3"/>
<path transform="translate(642,540)" d="m0 0 1 2 5 2 15 8 8 4-1 3-5-2-22-13h-2z" fill="#3A3A3B"/>
<path transform="translate(954,822)" d="m0 0h11l2 1-1 4-4 1h-9l-1-4z" fill="#F0F0F0"/>
<path transform="translate(1350,1091)" d="m0 0 28 1v3l-28-1-7-1v-1z" fill="#1D1B1C"/>
<path transform="translate(357,1051)" d="m0 0h1v14l-2 5-5 1v-10l5-3z" fill="#555657"/>
<path transform="translate(1441,820)" d="m0 0 7 1 29 8v2l-13-1v-2l-17-5-6-1-1 3z" fill="#505152"/>
<path transform="translate(1741,1010)" d="m0 0 11 2v2h-7v16h-1l-1-15-2-1v24h-1v-27z" fill="#8E8F90"/>
<path transform="translate(381,919)" d="m0 0 3 1-5 3-13 5-6 3-4-1 2-3h5v-2l10-3z" fill="#D8D8D8"/>
<path transform="translate(437,1111)" d="m0 0h18l-3 2-9 2h-17l4-3z" fill="#2A2829"/>
<path transform="translate(1526,1107)" d="m0 0h15l11 2 22 1-3 2h-11l-27-3-7-1z" fill="#F4F4F4"/>
<path transform="translate(1607,1110)" d="m0 0 15 1 15 2 2 2-9-1h-22l-2-3z" fill="#454647"/>
<path transform="translate(451,1107)" d="m0 0h10l-4 2v2h-28v-1z" fill="#5B5B5C"/>
<path transform="translate(595,1109)" d="m0 0 23 1v1l-40 2h-14v-1z" fill="#7F7F80"/>
<path transform="translate(319,940)" d="m0 0 2 1-1 1 3 2-20 9-5 2v-2l18-11z" fill="#252525"/>
<path transform="translate(515,881)" d="m0 0 4 1-13 4-24 4 1-2 9-3z" fill="#A7A7A8"/>
<path transform="translate(480,857)" d="m0 0 2 1-4 4-26 10-1-2 8-4 10-4z" fill="#414142"/>
<path transform="translate(1028,753)" d="m0 0 4 1 1 1v12l-5 1z" fill="#E3E3E3"/>
<path transform="translate(489,1056)" d="m0 0h1v31l6-1h8v2l3 2-3 1h-7l1-2-9-1z" fill="#6D6D6E"/>
<path transform="translate(1712,930)" d="m0 0 5 2 2 1v3l3 1 2 2 4 2-5 1-9-4-4-6z" fill="#141314"/>
<path transform="translate(896,824)" d="m0 0h13l1 4-1 1h-13l-1-3z" fill="#E8E8E8"/>
<path transform="translate(910,338)" d="m0 0 2 4 6 21-1 3-1-2-2 1-5-21z" fill="#4B4B4C"/>
<path transform="translate(1698,1080)" d="m0 0h1l1 23-2 3-2-2v-20h2z" fill="#7E7D7E"/>
<path transform="translate(1510,1107)" d="m0 0h16l7 1v3h-11l-12-2z" fill="#484849"/>
<path transform="translate(1142,824)" d="m0 0h11l2 4-1 1h-14l1-4z" fill="#ECECEC"/>
<path transform="translate(1694,1081)" d="m0 0 2 2 1 21 1 2h-5l-1-2z" fill="#A1A2A3"/>
<path transform="translate(1191,1074)" d="m0 0 2 2 4-1 6-1 6 2v2h-31v-1l11-2z" fill="#020202"/>
<path transform="translate(574,829)" d="m0 0h2v5h-2v4h-10v-2l5-3h-6l2-2z" fill="#2A2A2A"/>
<path transform="translate(419,1123)" d="m0 0h21v1l-38 4h-7v-1l17-2z" fill="#828283"/>
<path transform="translate(457,1091)" d="m0 0h13v2l3 1-17 3-3-1 4-4z" fill="#3D3D3E"/>
<path transform="translate(1655,1115)" d="m0 0h9l11 2-4 1v2h-12l-10-1v-1l12-1-6-1z" fill="#838485"/>
<path transform="translate(1549,1122)" d="m0 0h11l11 2v1l-12 1-9 1z" fill="#7D7D7E"/>
<path transform="translate(688,840)" d="m0 0h9l1 4-4 2h-8l1-5z" fill="#DCDCDD"/>
<path transform="translate(1238,829)" d="m0 0h10l1 5-1 1h-9l-1-1z" fill="#FAFAFA"/>
<path transform="translate(500,849)" d="m0 0 2 1-1 3-18 7h-2l1-3 11-5z" fill="#373738"/>
<path transform="translate(567,1102)" d="m0 0m-9 0 9 1v2l-15 1h-13l4-2z" fill="#5C5D5E"/>
<path transform="translate(1609,1096)" d="m0 0 9 1v1l-7 1-4 4h-5l-3-4v-2h9z" fill="#747475"/>
<path transform="translate(1402,536)" d="m0 0 2 4-10 6-11 7-4-2 22-12z" fill="#3A3A3A"/>
<path transform="translate(1457,1080)" d="m0 0h13l1 4h-16z" fill="#1D1B1C"/>
<path transform="translate(1223,411)" d="m0 0 1 3-6 11-2 2-3-1 2-5 5-8z" fill="#242425"/>
<path transform="translate(1354,840)" d="m0 0h8l1 1v6h-5l-5-3z" fill="#DCDCDC"/>
<path transform="translate(546,874)" d="m0 0h6v2l-8 1-7 2-12 1 3-3z" fill="#D8D8D9"/>
<path transform="translate(762,832)" d="m0 0h7l1 3-2 3h-9l1-5z" fill="#E1E1E1"/>
<path transform="translate(1280,832)" d="m0 0 10 1 1 5h-9l-2-2z" fill="#F5F5F5"/>
<path transform="translate(1563,855)" d="m0 0 9 3 11 5v3l-21-8z" fill="#3C3C3C"/>
<path transform="translate(724,835)" d="m0 0h6l1 5-1 2h-7l-1-5z" fill="#E8E8E8"/>
<path transform="translate(582,1079)" d="m0 0h12l-1 3 2 2-21 2 1-2 3-2 7-1z" fill="#606162"/>
<path transform="translate(358,1105)" d="m0 0h7l-3 2-13 3h-11l4-1v-2z" fill="#545455"/>
<path transform="translate(802,829)" d="m0 0h10l-1 5-8 1-2-1z" fill="#F9F9F9"/>
<path transform="translate(1660,1122)" d="m0 0 14 2 12 2v2l-11-1-18-3z" fill="#888889"/>
<path transform="translate(626,1100)" d="m0 0 16 1v1l-15 1h-19v-1z" fill="#A6A6A7"/>
<path transform="translate(1597,1064)" d="m0 0h15l-2 4h-2l-4-1-3-2 1 3-3 2-2 3z" fill="#1F1D1E"/>
<path transform="translate(990,759)" d="m0 0h5v8l-1 1h-5v-8z" fill="#E3E3E3"/>
<path transform="translate(782,1094)" d="m0 0h12l10 1v1l-15 1-23-1v-1z" fill="#A1A2A3"/>
<path transform="translate(831,1071)" d="m0 0 21 1v1l-6 1h-19z" fill="#1D1B1C"/>
<path transform="translate(1546,849)" d="m0 0 6 1 11 4 1 3-10-2-8-3z" fill="#212121"/>
<path transform="translate(492,1103)" d="m0 0h10l-1 3h-27v-1z" fill="#626364"/>
<path transform="translate(849,826)" d="m0 0h8l-1 5h-10l1-4z" fill="#E0E0E0"/>
<path transform="translate(806,540)" d="m0 0 6 2 12 11-2 2-8-7-2-1v-2l-4-2z" fill="#2E2D2E"/>
<path transform="translate(833,1091)" d="m0 0 33 1v1l-35 1v-2z" fill="#79797A"/>
<path transform="translate(1471,1103)" d="m0 0 15 1v2h-14l-14-1v-1z" fill="#ACADAE"/>
<path transform="translate(1496,873)" d="m0 0h7l5 1v2h6v2l-13-1-5-2z" fill="#DADADA"/>
<path transform="translate(1015,822)" d="m0 0h7l1 1v5h-8z" fill="#FDFDFD"/>
<path transform="translate(1735,943)" d="m0 0 5 2 11 8-3 1-12-6z" fill="#4F4F50"/>
<path transform="translate(660,845)" d="m0 0h5l-1 5h-10v-3z" fill="#E9E9E9"/>
<path transform="translate(1422,652)" d="m0 0h8l-4 3-10 2v-2l-7 1 4-2z" fill="#3E3E3E"/>
<path transform="translate(1700,1107)" d="m0 0 13 1 7 3v1l-11-1-9-2z" fill="#7F7F80"/>
<path transform="translate(582,1099)" d="m0 0h13l8 2v1h-13l-8-1z" fill="#1D1B1C"/>
<path transform="translate(577,858)" d="m0 0h5v6h-8l-1-4h4z" fill="#DADADB"/>
<path transform="translate(463,1106)" d="m0 0h13v3h-17z" fill="#4B4C4D"/>
<path transform="translate(1543,883)" d="m0 0h9l5 2 1 3-10-1-5-3z" fill="#D9D9D9"/>
<path transform="translate(1491,863)" d="m0 0 9 1v5l-8-1z" fill="#E1E2E2"/>
<path transform="translate(1194,826)" d="m0 0h9l1 4-7 1-4-1z" fill="#F0F0F0"/>
<path transform="translate(619,654)" d="m0 0h8l10 2-3 1v2l-8-1-7-3z" fill="#2C2C2C"/>
<path transform="translate(1639,1120)" d="m0 0h13l7 1 1 2-6 1-13-2z" fill="#757576"/>
<path transform="translate(1385,845)" d="m0 0h9l1 4-5 1-5-1z" fill="#DCDCDD"/>
<path transform="translate(982,757)" d="m0 0h3v11l-1 1h-5l1-7h1z" fill="#828283"/>
<path transform="translate(1057,758)" d="m0 0 4 2 1 1v7l-5-1z" fill="#F4F4F4"/>
<path transform="translate(1576,891)" d="m0 0 10 1 8 3v2l-12-2-6-3z" fill="#D9D9DA"/>
<path transform="translate(1320,835)" d="m0 0 6 1v6h-6l-1-1v-5z" fill="#FDFDFD"/>
<path transform="translate(1129,367)" d="m0 0h1v8l-2 9-2-3-2 1 3-11z" fill="#303030"/>
<path transform="translate(511,872)" d="m0 0h4l-1 5-8 1 1-4z" fill="#DEDFDF"/>
<path transform="translate(1467,859)" d="m0 0h8l1 5h-7l-2-2z" fill="#E7E7E7"/>
<path transform="translate(356,985)" d="m0 0h2v17h-2l-1-11-1-4z" fill="#201E1F"/>
<path transform="translate(398,970)" d="m0 0h7l-2 4-14 1 1-3z" fill="#505051"/>
<path transform="translate(1416,850)" d="m0 0h8v5h-8z" fill="#ddd"/>
<path transform="translate(1030,822)" d="m0 0h5l1 1v5h-7v-5z" fill="#F2F2F2"/>
<path transform="translate(802,382)" d="m0 0h3l9 15-3 2-7-13z" fill="#434344"/>
<path transform="translate(1411,1078)" d="m0 0h13l1 3h-13z" fill="#1D1B1C"/>
<path transform="translate(1330,446)" d="m0 0 1 2 2 1-8 7-4 4-3-1 11-11z" fill="#424243"/>
<path transform="translate(756,1070)" d="m0 0h8l-1 3h-12l-5-1v-1z" fill="#59595A"/>
<path transform="translate(288 1e3)" d="m0 0 2 1 1 4-6 2h-2l-5 2v-2z" fill="#606061"/>
<path transform="translate(401,911)" d="m0 0 3 1-2 2-1 2-8 2h-5l2-3 9-2z" fill="#BDBDBE"/>
<path transform="translate(1239,379)" d="m0 0 2 2-4 9-4 8-2-3z" fill="#3A3A3A"/>
<path transform="translate(396,1115)" d="m0 0h12l3 2-3 1h-8l-6-1z" fill="#211F20"/>
<path transform="translate(1348,1074)" d="m0 0 13 1 3 3h-11l-8-1z" fill="#010101"/>
<path transform="translate(1650,971)" d="m0 0 16 2v1l-11 1-9-2z" fill="#565657"/>
<path transform="translate(1553,877)" d="m0 0h7l2 2v4l-5-1-4-3z" fill="#EAEAEA"/>
<path transform="translate(915,361)" d="m0 0 2 3 4 9-1 4v-3h-3l-2-7z" fill="#2F2F2F"/>
<path transform="translate(961,856)" d="m0 0h5l1 5-1 1h-5l-1-3z" fill="#D2D2D3"/>
<path transform="translate(1564,1104)" d="m0 0 13 1 9 1v1h-17l-5-2z" fill="#838384"/>
<path transform="translate(329,1083)" d="m0 0h4v14l-2-1z" fill="#7A797A"/>
<path transform="translate(384,973)" d="m0 0h9l-4 2-3 1-1 4-3-1 1-2h-2v-2h3z" fill="#141414"/>
<path transform="translate(1660,974)" d="m0 0 9 1v4h-4l-1 3h-1v-6l-3-1z" fill="#050405"/>
<path transform="translate(629,860)" d="m0 0h5l3 3-12 1v-2h-5v-1z" fill="#BEBEBF"/>
<path transform="translate(619,809)" d="m0 0 4 2-15 5-4-1 3-2 8-2z" fill="#626263"/>
<path transform="translate(729,466)" d="m0 0 4 2 5 6-1 3-9-9z" fill="#232223"/>
<path transform="translate(367,1126)" d="m0 0h7v2l10 1v1l-16 1v-2h4v-2h-5z" fill="#8B8B8C"/>
<path transform="translate(1710,1124)" d="m0 0h10l7 2v1h-10l-7-2z" fill="#7E7E7F"/>
<path transform="translate(518,842)" d="m0 0 4 1 2 2-9 3h-2l1-4z" fill="#2A2A2A"/>
<path transform="translate(600,815)" d="m0 0h5l-1 2-17 4-1-2z" fill="#7B7C7D"/>
<path transform="translate(1489,1104)" d="m0 0h8l9 2v1h-11l-6-1z" fill="#3B3B3C"/>
<path transform="translate(812,1085)" d="m0 0h13l-3 2-2-1v2h-12l-3-2z" fill="#414142"/>
<path transform="translate(548,1077)" d="m0 0 1 4-2 3h-2v2h5v1h-10l-3-3 9-2z" fill="#5B5B5C"/>
<path transform="translate(492,877)" d="m0 0h4v4l-2 1h-6l1-4z" fill="#E8E9E9"/>
<path transform="translate(1084,856)" d="m0 0 6 1-1 5h-5z" fill="#E2E2E2"/>
<path transform="translate(952,856)" d="m0 0h5v6h-5l-1-4z" fill="#E9E9E9"/>
<path transform="translate(1701,1130)" d="m0 0h13l2 2-1 1h-9v-2h-5z" fill="#909091"/>
<path transform="translate(337,1108)" d="m0 0h5l2 3-12 2h-5l1-2z" fill="#7C7C7D"/>
<path transform="translate(1663,1104)" d="m0 0 14 1v1h-7l-1 4-4-1v-4z" fill="#929394"/>
<path transform="translate(1517,1084)" d="m0 0h3v2l2 1-2 1-9-1-3-2z" fill="#2A292A"/>
<path transform="translate(1719,934)" d="m0 0 6 2 5 4-2 1-7-2v-2l-2-1zm8 7 1 2-3-1z" fill="#2E2D2E"/>
<path transform="translate(1456,885)" d="m0 0 6 2 5-1v3l-4 1-7-1z" fill="#C8C9C9"/>
<path transform="translate(1172,859)" d="m0 0h5v5l-5 1-1-4z" fill="#DFDFE0"/>
<path transform="translate(1534,1109)" d="m0 0 17 1v1l-15 1-3-2z" fill="#5C5C5D"/>
<path transform="translate(1191,1074)" d="m0 0 5 4h-18v-1l11-2z" fill="#010101"/>
<path transform="translate(1611,1044)" d="m0 0h1v15h-1v-6h-2l-1-4z" fill="#1E1C1D"/>
<path transform="translate(309,946)" d="m0 0 2 1 1 2-13 6-1-2z" fill="#3C3C3C"/>
<path transform="translate(533,868)" d="m0 0h4l-1 3-3 2h-5l1-4z" fill="#F2F2F2"/>
<path transform="translate(550,864)" d="m0 0h7l-1 4-4 1-3-1z" fill="#E9E9E9"/>
<path transform="translate(660,552)" d="m0 0 6 1 5 4-1 2-5-2-5-3z" fill="#262626"/>
<path transform="translate(999,1095)" d="m0 0h19l-3 4-3-1v-2h-13z" fill="#737374"/>
<path transform="translate(1093,857)" d="m0 0h6v5h-6z" fill="#F1F2F2"/>
<path transform="translate(627,850)" d="m0 0h6l1 4h-8z" fill="#FDFDFD"/>
<path transform="translate(338,1123)" d="m0 0 3 1-8 2 2 2h-9l2-3z" fill="#868687"/>
<path transform="translate(747,1072)" d="m0 0 14 1-4 2h-11z" fill="#222122"/>
<path transform="translate(1138,857)" d="m0 0 5 1v5h-5z" fill="#C9CACA"/>
<path transform="translate(488,854)" d="m0 0h4l-1 3-10 3 1-3z" fill="#222122"/>
<path transform="translate(565,825)" d="m0 0h3v2l-12 4-4-1 10-4z" fill="#676768"/>
<path transform="translate(1219,418)" d="m0 0 1 3-3 6-4-1 2-5z" fill="#1A191A"/>
<path transform="translate(1510,1107)" d="m0 0h9l4 2-1 1-12-1z" fill="#3B3C3D"/>
<path transform="translate(1484,1102)" d="m0 0h9l-4 4-13-2v-1z" fill="#6D6D6E"/>
<path transform="translate(526,1100)" d="m0 0h17l1 2-9 1-1-1-8-1z" fill="#545455"/>
<path transform="translate(1460,1081)" d="m0 0h6l4 1v2h-12z" fill="#3D3E3F"/>
<path transform="translate(1779,1016)" d="m0 0 6 4 3 3-1 2-6-3v-2l-3-3z" fill="#8F8F90"/>
<path transform="translate(1522,878)" d="m0 0 13 2 1 2-12-1-2-1z" fill="#F6F6F6"/>
<path transform="translate(1049,855)" d="m0 0 4 1v5h-5v-5z" fill="#F3F3F3"/>
<path transform="translate(1370,556)" d="m0 0 2 1-2 4-5 3h-2l2-5z" fill="#212021"/>
<path transform="translate(1650,1115)" d="m0 0 12 1-1 2h-9l-3-2z" fill="#525253"/>
<path transform="translate(1743,1106)" d="m0 0h1v11l2 1h-4v-2l-2-1h2v-8z" fill="#A1A2A3"/>
<path transform="translate(566,1088)" d="m0 0h2l-1 3h-12v-2z" fill="#39393A"/>
<path transform="translate(1278,864)" d="m0 0h4v6l-4 1z" fill="#E4E5E5"/>
<path transform="translate(917,857)" d="m0 0h5l-1 5-5-1z" fill="#E8E8E8"/>
<path transform="translate(603,855)" d="m0 0h4l-1 4h-7v-3z" fill="#EFEFEF"/>
<path transform="translate(1067,855)" d="m0 0h4v6l-4 1z" fill="#E4E4E4"/>
<path transform="translate(1057,855)" d="m0 0h4l1 6h-5z" fill="#E7E7E7"/>
<path transform="translate(1072,730)" d="m0 0 2 1-2 2 1 2-7 3-3-1z" fill="#2F2F30"/>
<path transform="translate(422,905)" d="m0 0 3 1-8 4h-2l-1-3z" fill="#CDCDCD"/>
<path transform="translate(1197,859)" d="m0 0 4 1v6l-4-1z" fill="#D7D8D8"/>
<path transform="translate(1444,855)" d="m0 0h6v4h-6z" fill="#FDFDFD"/>
<path transform="translate(979,855)" d="m0 0h4v6h-4z" fill="#F5F6F6"/>
<path transform="translate(914,354)" d="m0 0 2 3 2 9-2-2-2 1-1-8z" fill="#585859"/>
</svg>
